<?xml version="1.0" encoding="utf-8" standalone="no"?>
<!DOCTYPE svg PUBLIC "-//W3C//DTD SVG 1.1//EN"
  "http://www.w3.org/Graphics/SVG/1.1/DTD/svg11.dtd">
<svg xmlns:xlink="http://www.w3.org/1999/xlink" width="576pt" height="185.142857pt" viewBox="0 0 576 185.142857" xmlns="http://www.w3.org/2000/svg" version="1.1">
 <metadata>
  <rdf:RDF xmlns:dc="http://purl.org/dc/elements/1.1/" xmlns:cc="http://creativecommons.org/ns#" xmlns:rdf="http://www.w3.org/1999/02/22-rdf-syntax-ns#">
   <cc:Work>
    <dc:type rdf:resource="http://purl.org/dc/dcmitype/StillImage"/>
    <dc:date>2025-11-11T04:05:33.198613</dc:date>
    <dc:format>image/svg+xml</dc:format>
    <dc:creator>
     <cc:Agent>
      <dc:title>Matplotlib v3.10.3, https://matplotlib.org/</dc:title>
     </cc:Agent>
    </dc:creator>
   </cc:Work>
  </rdf:RDF>
 </metadata>
 <defs>
  <style type="text/css">*{stroke-linejoin: round; stroke-linecap: butt}</style>
 </defs>
 <g id="figure_1">
  <g id="patch_1">
   <path d="M 0 185.142857 
L 576 185.142857 
L 576 0 
L 0 0 
z
" style="fill: #ffffff"/>
  </g>
  <g id="axes_1">
   <g id="patch_2">
    <path d="M 72 164.777143 
L 518.4 164.777143 
L 518.4 22.217143 
L 72 22.217143 
z
" style="fill: #ffffff"/>
   </g>
   <g id="FillBetweenPolyCollection_1">
    <defs>
     <path id="me2921a6cca" d="M 92.290909 -122.818056 
L 92.290909 -153.044801 
L 93.6573 -154.473914 
L 95.023691 -155.454337 
L 96.390083 -156.049406 
L 97.756474 -156.350913 
L 99.122865 -156.445714 
L 100.489256 -156.401836 
L 101.855647 -156.267398 
L 103.222039 -156.071263 
L 104.58843 -155.822199 
L 105.954821 -155.510758 
L 107.321212 -155.116071 
L 108.687603 -154.612786 
L 110.053994 -153.972697 
L 111.420386 -153.163423 
L 112.786777 -152.153402 
L 114.153168 -150.928336 
L 115.519559 -149.511703 
L 116.88595 -147.973702 
L 118.252342 -146.418581 
L 119.618733 -144.95509 
L 120.985124 -143.665961 
L 122.351515 -142.591065 
L 123.717906 -141.728507 
L 125.084298 -141.04788 
L 126.450689 -140.506799 
L 127.81708 -140.064657 
L 129.183471 -139.691413 
L 130.549862 -139.371256 
L 131.916253 -139.101473 
L 133.282645 -138.887433 
L 134.649036 -138.735661 
L 136.015427 -138.647656 
L 137.381818 -138.616613 
L 138.748209 -138.6279 
L 140.114601 -138.662627 
L 141.480992 -138.70264 
L 142.847383 -138.734911 
L 144.213774 -138.753723 
L 145.580165 -138.760129 
L 146.946556 -138.75939 
L 148.312948 -138.757798 
L 149.679339 -138.760133 
L 151.04573 -138.76827 
L 152.412121 -138.780877 
L 153.778512 -138.793971 
L 155.144904 -138.802169 
L 156.511295 -138.800299 
L 157.877686 -138.784712 
L 159.244077 -138.753688 
L 160.610468 -138.706899 
L 161.97686 -138.644671 
L 163.343251 -138.567881 
L 164.709642 -138.47871 
L 166.076033 -138.381528 
L 167.442424 -138.282961 
L 168.808815 -138.190714 
L 170.175207 -138.111676 
L 171.541598 -138.050316 
L 172.907989 -138.008123 
L 174.27438 -137.984129 
L 175.640771 -137.975951 
L 177.007163 -137.98065 
L 178.373554 -137.995032 
L 179.739945 -138.015487 
L 181.106336 -138.037791 
L 182.472727 -138.057312 
L 183.839118 -138.069764 
L 185.20551 -138.072265 
L 186.571901 -138.064175 
L 187.938292 -138.047247 
L 189.304683 -138.024958 
L 190.671074 -138.001336 
L 192.037466 -137.979791 
L 193.403857 -137.962396 
L 194.770248 -137.949781 
L 196.136639 -137.941496 
L 197.50303 -137.93654 
L 198.869421 -137.93383 
L 200.235813 -137.932473 
L 201.602204 -137.931849 
L 202.968595 -137.931586 
L 204.334986 -137.931485 
L 205.701377 -137.931453 
L 207.067769 -137.931457 
L 208.43416 -137.931502 
L 209.800551 -137.931634 
L 211.166942 -137.931967 
L 212.533333 -137.932739 
L 213.899725 -137.93438 
L 215.266116 -137.937584 
L 216.632507 -137.943308 
L 217.998898 -137.952649 
L 219.365289 -137.966513 
L 220.73168 -137.985117 
L 222.098072 -138.00747 
L 223.464463 -138.031113 
L 224.830854 -138.052381 
L 226.197245 -138.067262 
L 227.563636 -138.072618 
L 227.563636 -137.790239 
L 227.563636 -137.790239 
L 226.197245 -137.795596 
L 224.830854 -137.810476 
L 223.464463 -137.831744 
L 222.098072 -137.855387 
L 220.73168 -137.877741 
L 219.365289 -137.896345 
L 217.998898 -137.910208 
L 216.632507 -137.919549 
L 215.266116 -137.925273 
L 213.899725 -137.928477 
L 212.533333 -137.930118 
L 211.166942 -137.93089 
L 209.800551 -137.931224 
L 208.43416 -137.931355 
L 207.067769 -137.9314 
L 205.701377 -137.931404 
L 204.334986 -137.931373 
L 202.968595 -137.931271 
L 201.602204 -137.931008 
L 200.235813 -137.930384 
L 198.869421 -137.929027 
L 197.50303 -137.926317 
L 196.136639 -137.921361 
L 194.770248 -137.913076 
L 193.403857 -137.900461 
L 192.037466 -137.883066 
L 190.671074 -137.861521 
L 189.304683 -137.8379 
L 187.938292 -137.81561 
L 186.571901 -137.798682 
L 185.20551 -137.790593 
L 183.839118 -137.793093 
L 182.472727 -137.805545 
L 181.106336 -137.825066 
L 179.739945 -137.84737 
L 178.373554 -137.867825 
L 177.007163 -137.882207 
L 175.640771 -137.886906 
L 174.27438 -137.878728 
L 172.907989 -137.854734 
L 171.541598 -137.812541 
L 170.175207 -137.751181 
L 168.808815 -137.672143 
L 167.442424 -137.579896 
L 166.076033 -137.481329 
L 164.709642 -137.384147 
L 163.343251 -137.294976 
L 161.97686 -137.218187 
L 160.610468 -137.155958 
L 159.244077 -137.109169 
L 157.877686 -137.078145 
L 156.511295 -137.062559 
L 155.144904 -137.060688 
L 153.778512 -137.068886 
L 152.412121 -137.08198 
L 151.04573 -137.094587 
L 149.679339 -137.102725 
L 148.312948 -137.105059 
L 146.946556 -137.103467 
L 145.580165 -137.102728 
L 144.213774 -137.109135 
L 142.847383 -137.127946 
L 141.480992 -137.160217 
L 140.114601 -137.20023 
L 138.748209 -137.234957 
L 137.381818 -137.246244 
L 136.015427 -137.215201 
L 134.649036 -137.127196 
L 133.282645 -136.975424 
L 131.916253 -136.761384 
L 130.549862 -136.491602 
L 129.183471 -136.171445 
L 127.81708 -135.7982 
L 126.450689 -135.356058 
L 125.084298 -134.814977 
L 123.717906 -134.13435 
L 122.351515 -133.271792 
L 120.985124 -132.196896 
L 119.618733 -130.907767 
L 118.252342 -129.444277 
L 116.88595 -127.889155 
L 115.519559 -126.351154 
L 114.153168 -124.934521 
L 112.786777 -123.709455 
L 111.420386 -122.699434 
L 110.053994 -121.89016 
L 108.687603 -121.250071 
L 107.321212 -120.746786 
L 105.954821 -120.352099 
L 104.58843 -120.040658 
L 103.222039 -119.791594 
L 101.855647 -119.595459 
L 100.489256 -119.461021 
L 99.122865 -119.417143 
L 97.756474 -119.511944 
L 96.390083 -119.813451 
L 95.023691 -120.40852 
L 93.6573 -121.388943 
L 92.290909 -122.818056 
z
" style="stroke: #3d3d3d; stroke-width: 1.25"/>
    </defs>
    <g clip-path="url(#pff6a62a495)">
     <use xlink:href="#me2921a6cca" x="0" y="185.142857" style="fill: #3274a1; stroke: #3d3d3d; stroke-width: 1.25"/>
    </g>
   </g>
   <g id="FillBetweenPolyCollection_2">
    <defs>
     <path id="m154d383c34" d="M 92.290909 -75.812892 
L 92.290909 -107.478536 
L 94.520284 -109.388174 
L 96.749659 -110.16 
L 98.979034 -109.926585 
L 101.208409 -108.965518 
L 103.437785 -107.575152 
L 105.66716 -106.014532 
L 107.896535 -104.488756 
L 110.12591 -103.14882 
L 112.355285 -102.080554 
L 114.58466 -101.276517 
L 116.814035 -100.619395 
L 119.04341 -99.919687 
L 121.272785 -99.014144 
L 123.50216 -97.868515 
L 125.731535 -96.604323 
L 127.960911 -95.424196 
L 130.190286 -94.496158 
L 132.419661 -93.88314 
L 134.649036 -93.549313 
L 136.878411 -93.40986 
L 139.107786 -93.376994 
L 141.337161 -93.382429 
L 143.566536 -93.38175 
L 145.795911 -93.350747 
L 148.025286 -93.27915 
L 150.254661 -93.164794 
L 152.484037 -93.010467 
L 154.713412 -92.823774 
L 156.942787 -92.618886 
L 159.172162 -92.417779 
L 161.401537 -92.24686 
L 163.630912 -92.126849 
L 165.860287 -92.061037 
L 168.089662 -92.031975 
L 170.319037 -92.011367 
L 172.548412 -91.976619 
L 174.777787 -91.921881 
L 177.007163 -91.856987 
L 179.236538 -91.798017 
L 181.465913 -91.757935 
L 183.695288 -91.742112 
L 185.924663 -91.748032 
L 188.154038 -91.767065 
L 190.383413 -91.787822 
L 192.612788 -91.800918 
L 194.842163 -91.803063 
L 197.071538 -91.797643 
L 199.300913 -91.791302 
L 201.530289 -91.789246 
L 203.759664 -91.792661 
L 205.989039 -91.799374 
L 208.218414 -91.806221 
L 210.447789 -91.81086 
L 212.677164 -91.812015 
L 214.906539 -91.808719 
L 217.135914 -91.799736 
L 219.365289 -91.783905 
L 221.594664 -91.761291 
L 223.824039 -91.734163 
L 226.053415 -91.706666 
L 228.28279 -91.683109 
L 230.512165 -91.666134 
L 232.74154 -91.656133 
L 234.970915 -91.652108 
L 237.20029 -91.652949 
L 239.429665 -91.658095 
L 241.65904 -91.667256 
L 243.888415 -91.679646 
L 246.11779 -91.69355 
L 248.347165 -91.706685 
L 250.576541 -91.717122 
L 252.805916 -91.723945 
L 255.035291 -91.727147 
L 257.264666 -91.726988 
L 259.494041 -91.723447 
L 261.723416 -91.716264 
L 263.952791 -91.705507 
L 266.182166 -91.692198 
L 268.411541 -91.678331 
L 270.640916 -91.666143 
L 272.870291 -91.657172 
L 275.099667 -91.651899 
L 277.329042 -91.65013 
L 279.558417 -91.651681 
L 281.787792 -91.656712 
L 284.017167 -91.665418 
L 286.246542 -91.677325 
L 288.475917 -91.690804 
L 290.705292 -91.703297 
L 292.934667 -91.712184 
L 295.164042 -91.715693 
L 297.393417 -91.713452 
L 299.622793 -91.706674 
L 301.852168 -91.698023 
L 304.081543 -91.690808 
L 306.310918 -91.68745 
L 308.540293 -91.687989 
L 310.769668 -91.689926 
L 312.999043 -91.689802 
L 312.999043 -91.601627 
L 312.999043 -91.601627 
L 310.769668 -91.601502 
L 308.540293 -91.603439 
L 306.310918 -91.603979 
L 304.081543 -91.600621 
L 301.852168 -91.593406 
L 299.622793 -91.584754 
L 297.393417 -91.577977 
L 295.164042 -91.575735 
L 292.934667 -91.579245 
L 290.705292 -91.588132 
L 288.475917 -91.600625 
L 286.246542 -91.614103 
L 284.017167 -91.626011 
L 281.787792 -91.634717 
L 279.558417 -91.639748 
L 277.329042 -91.641299 
L 275.099667 -91.63953 
L 272.870291 -91.634256 
L 270.640916 -91.625286 
L 268.411541 -91.613097 
L 266.182166 -91.599231 
L 263.952791 -91.585921 
L 261.723416 -91.575164 
L 259.494041 -91.567981 
L 257.264666 -91.564441 
L 255.035291 -91.564281 
L 252.805916 -91.567483 
L 250.576541 -91.574306 
L 248.347165 -91.584743 
L 246.11779 -91.597879 
L 243.888415 -91.611782 
L 241.65904 -91.624173 
L 239.429665 -91.633333 
L 237.20029 -91.63848 
L 234.970915 -91.639321 
L 232.74154 -91.635296 
L 230.512165 -91.625295 
L 228.28279 -91.608319 
L 226.053415 -91.584763 
L 223.824039 -91.557266 
L 221.594664 -91.530137 
L 219.365289 -91.507524 
L 217.135914 -91.491693 
L 214.906539 -91.48271 
L 212.677164 -91.479414 
L 210.447789 -91.480568 
L 208.218414 -91.485207 
L 205.989039 -91.492054 
L 203.759664 -91.498767 
L 201.530289 -91.502182 
L 199.300913 -91.500126 
L 197.071538 -91.493786 
L 194.842163 -91.488366 
L 192.612788 -91.49051 
L 190.383413 -91.503607 
L 188.154038 -91.524364 
L 185.924663 -91.543396 
L 183.695288 -91.549317 
L 181.465913 -91.533493 
L 179.236538 -91.493411 
L 177.007163 -91.434441 
L 174.777787 -91.369547 
L 172.548412 -91.31481 
L 170.319037 -91.280062 
L 168.089662 -91.259454 
L 165.860287 -91.230392 
L 163.630912 -91.164579 
L 161.401537 -91.044568 
L 159.172162 -90.87365 
L 156.942787 -90.672543 
L 154.713412 -90.467655 
L 152.484037 -90.280962 
L 150.254661 -90.126635 
L 148.025286 -90.012279 
L 145.795911 -89.940682 
L 143.566536 -89.909679 
L 141.337161 -89.908999 
L 139.107786 -89.914435 
L 136.878411 -89.881568 
L 134.649036 -89.742116 
L 132.419661 -89.408289 
L 130.190286 -88.79527 
L 127.960911 -87.867233 
L 125.731535 -86.687105 
L 123.50216 -85.422914 
L 121.272785 -84.277284 
L 119.04341 -83.371741 
L 116.814035 -82.672034 
L 114.58466 -82.014911 
L 112.355285 -81.210874 
L 110.12591 -80.142609 
L 107.896535 -78.802673 
L 105.66716 -77.276897 
L 103.437785 -75.716276 
L 101.208409 -74.32591 
L 98.979034 -73.364843 
L 96.749659 -73.131429 
L 94.520284 -73.903254 
L 92.290909 -75.812892 
z
" style="stroke: #3d3d3d; stroke-width: 1.25"/>
    </defs>
    <g clip-path="url(#pff6a62a495)">
     <use xlink:href="#m154d383c34" x="0" y="185.142857" style="fill: #e1812c; stroke: #3d3d3d; stroke-width: 1.25"/>
    </g>
   </g>
   <g id="FillBetweenPolyCollection_3">
    <defs>
     <path id="m655eb69eeb" d="M 92.290909 -29.825649 
L 92.290909 -60.894351 
L 96.390083 -62.520155 
L 100.489256 -63.525093 
L 104.58843 -63.874286 
L 108.687603 -63.622576 
L 112.786777 -62.889035 
L 116.88595 -61.823334 
L 120.985124 -60.574624 
L 125.084298 -59.269169 
L 129.183471 -57.998589 
L 133.282645 -56.817777 
L 137.381818 -55.750235 
L 141.480992 -54.797801 
L 145.580165 -53.951231 
L 149.679339 -53.198512 
L 153.778512 -52.52919 
L 157.877686 -51.934944 
L 161.97686 -51.408151 
L 166.076033 -50.940457 
L 170.175207 -50.522681 
L 174.27438 -50.14618 
L 178.373554 -49.804867 
L 182.472727 -49.496744 
L 186.571901 -49.224023 
L 190.671074 -48.9915 
L 194.770248 -48.803603 
L 198.869421 -48.66107 
L 202.968595 -48.558399 
L 207.067769 -48.482983 
L 211.166942 -48.416324 
L 215.266116 -48.33714 
L 219.365289 -48.225694 
L 223.464463 -48.06835 
L 227.563636 -47.861198 
L 231.66281 -47.611651 
L 235.761983 -47.337322 
L 239.861157 -47.06226 
L 243.960331 -46.811498 
L 248.059504 -46.605513 
L 252.158678 -46.456187 
L 256.257851 -46.365279 
L 260.357025 -46.325419 
L 264.456198 -46.322913 
L 268.555372 -46.341234 
L 272.654545 -46.36428 
L 276.753719 -46.378769 
L 280.852893 -46.375554 
L 284.952066 -46.349904 
L 289.05124 -46.300973 
L 293.150413 -46.230828 
L 297.249587 -46.143408 
L 301.34876 -46.04373 
L 305.447934 -45.937382 
L 309.547107 -45.830192 
L 313.646281 -45.727858 
L 317.745455 -45.6354 
L 321.844628 -45.556543 
L 325.943802 -45.493239 
L 330.042975 -45.445532 
L 334.142149 -45.411855 
L 338.241322 -45.389625 
L 342.340496 -45.37592 
L 346.439669 -45.368035 
L 350.538843 -45.363804 
L 354.638017 -45.361688 
L 358.73719 -45.360701 
L 362.836364 -45.360273 
L 366.935537 -45.360099 
L 371.034711 -45.360034 
L 375.133884 -45.360011 
L 379.233058 -45.360003 
L 383.332231 -45.360001 
L 387.431405 -45.36 
L 391.530579 -45.36 
L 395.629752 -45.36 
L 399.728926 -45.36 
L 403.828099 -45.36 
L 407.927273 -45.36 
L 412.026446 -45.36 
L 416.12562 -45.36 
L 420.224793 -45.36 
L 424.323967 -45.360001 
L 428.42314 -45.360004 
L 432.522314 -45.360014 
L 436.621488 -45.360041 
L 440.720661 -45.360111 
L 444.819835 -45.360283 
L 448.919008 -45.360672 
L 453.018182 -45.36149 
L 457.117355 -45.363084 
L 461.216529 -45.365957 
L 465.315702 -45.370734 
L 469.414876 -45.378048 
L 473.51405 -45.388315 
L 477.613223 -45.401448 
L 481.712397 -45.416611 
L 485.81157 -45.432146 
L 489.910744 -45.445789 
L 494.009917 -45.455184 
L 498.109091 -45.458539 
L 498.109091 -45.261461 
L 498.109091 -45.261461 
L 494.009917 -45.264816 
L 489.910744 -45.274211 
L 485.81157 -45.287854 
L 481.712397 -45.303389 
L 477.613223 -45.318552 
L 473.51405 -45.331685 
L 469.414876 -45.341952 
L 465.315702 -45.349266 
L 461.216529 -45.354043 
L 457.117355 -45.356916 
L 453.018182 -45.35851 
L 448.919008 -45.359328 
L 444.819835 -45.359717 
L 440.720661 -45.359889 
L 436.621488 -45.359959 
L 432.522314 -45.359986 
L 428.42314 -45.359996 
L 424.323967 -45.359999 
L 420.224793 -45.36 
L 416.12562 -45.36 
L 412.026446 -45.36 
L 407.927273 -45.36 
L 403.828099 -45.36 
L 399.728926 -45.36 
L 395.629752 -45.36 
L 391.530579 -45.36 
L 387.431405 -45.36 
L 383.332231 -45.359999 
L 379.233058 -45.359997 
L 375.133884 -45.359989 
L 371.034711 -45.359966 
L 366.935537 -45.359901 
L 362.836364 -45.359727 
L 358.73719 -45.359299 
L 354.638017 -45.358312 
L 350.538843 -45.356196 
L 346.439669 -45.351965 
L 342.340496 -45.34408 
L 338.241322 -45.330375 
L 334.142149 -45.308145 
L 330.042975 -45.274468 
L 325.943802 -45.226761 
L 321.844628 -45.163457 
L 317.745455 -45.0846 
L 313.646281 -44.992142 
L 309.547107 -44.889808 
L 305.447934 -44.782618 
L 301.34876 -44.67627 
L 297.249587 -44.576592 
L 293.150413 -44.489172 
L 289.05124 -44.419027 
L 284.952066 -44.370096 
L 280.852893 -44.344446 
L 276.753719 -44.341231 
L 272.654545 -44.35572 
L 268.555372 -44.378766 
L 264.456198 -44.397087 
L 260.357025 -44.394581 
L 256.257851 -44.354721 
L 252.158678 -44.263813 
L 248.059504 -44.114487 
L 243.960331 -43.908502 
L 239.861157 -43.65774 
L 235.761983 -43.382678 
L 231.66281 -43.108349 
L 227.563636 -42.858802 
L 223.464463 -42.65165 
L 219.365289 -42.494306 
L 215.266116 -42.38286 
L 211.166942 -42.303676 
L 207.067769 -42.237017 
L 202.968595 -42.161601 
L 198.869421 -42.05893 
L 194.770248 -41.916397 
L 190.671074 -41.7285 
L 186.571901 -41.495977 
L 182.472727 -41.223256 
L 178.373554 -40.915133 
L 174.27438 -40.57382 
L 170.175207 -40.197319 
L 166.076033 -39.779543 
L 161.97686 -39.311849 
L 157.877686 -38.785056 
L 153.778512 -38.19081 
L 149.679339 -37.521488 
L 145.580165 -36.768769 
L 141.480992 -35.922199 
L 137.381818 -34.969765 
L 133.282645 -33.902223 
L 129.183471 -32.721411 
L 125.084298 -31.450831 
L 120.985124 -30.145376 
L 116.88595 -28.896666 
L 112.786777 -27.830965 
L 108.687603 -27.097424 
L 104.58843 -26.845714 
L 100.489256 -27.194907 
L 96.390083 -28.199845 
L 92.290909 -29.825649 
z
" style="stroke: #3d3d3d; stroke-width: 1.25"/>
    </defs>
    <g clip-path="url(#pff6a62a495)">
     <use xlink:href="#m655eb69eeb" x="0" y="185.142857" style="fill: #3a923a; stroke: #3d3d3d; stroke-width: 1.25"/>
    </g>
   </g>
   <g id="matplotlib.axis_1">
    <g id="xtick_1">
     <g id="line2d_1">
      <defs>
       <path id="mf9da128430" d="M 0 0 
L 0 3.5 
" style="stroke: #000000; stroke-width: 0.8"/>
      </defs>
      <g>
       <use xlink:href="#mf9da128430" x="92.290909" y="164.777143" style="stroke: #000000; stroke-width: 0.8"/>
      </g>
     </g>
     <g id="text_1">
      <!-- 1 -->
      <g transform="translate(89.109659 179.37558) scale(0.1 -0.1)">
       <defs>
        <path id="DejaVuSans-31" d="M 794 531 
L 1825 531 
L 1825 4091 
L 703 3866 
L 703 4441 
L 1819 4666 
L 2450 4666 
L 2450 531 
L 3481 531 
L 3481 0 
L 794 0 
L 794 531 
z
" transform="scale(0.015625)"/>
       </defs>
       <use xlink:href="#DejaVuSans-31"/>
      </g>
     </g>
    </g>
    <g id="xtick_2">
     <g id="line2d_2">
      <g>
       <use xlink:href="#mf9da128430" x="99.410526" y="164.777143" style="stroke: #000000; stroke-width: 0.8"/>
      </g>
     </g>
     <g id="text_2">
      <!-- 2 -->
      <g transform="translate(96.229276 179.37558) scale(0.1 -0.1)">
       <defs>
        <path id="DejaVuSans-32" d="M 1228 531 
L 3431 531 
L 3431 0 
L 469 0 
L 469 531 
Q 828 903 1448 1529 
Q 2069 2156 2228 2338 
Q 2531 2678 2651 2914 
Q 2772 3150 2772 3378 
Q 2772 3750 2511 3984 
Q 2250 4219 1831 4219 
Q 1534 4219 1204 4116 
Q 875 4013 500 3803 
L 500 4441 
Q 881 4594 1212 4672 
Q 1544 4750 1819 4750 
Q 2544 4750 2975 4387 
Q 3406 4025 3406 3419 
Q 3406 3131 3298 2873 
Q 3191 2616 2906 2266 
Q 2828 2175 2409 1742 
Q 1991 1309 1228 531 
z
" transform="scale(0.015625)"/>
       </defs>
       <use xlink:href="#DejaVuSans-32"/>
      </g>
     </g>
    </g>
    <g id="xtick_3">
     <g id="line2d_3">
      <g>
       <use xlink:href="#mf9da128430" x="106.530144" y="164.777143" style="stroke: #000000; stroke-width: 0.8"/>
      </g>
     </g>
     <g id="text_3">
      <!-- 3 -->
      <g transform="translate(103.348894 179.37558) scale(0.1 -0.1)">
       <defs>
        <path id="DejaVuSans-33" d="M 2597 2516 
Q 3050 2419 3304 2112 
Q 3559 1806 3559 1356 
Q 3559 666 3084 287 
Q 2609 -91 1734 -91 
Q 1441 -91 1130 -33 
Q 819 25 488 141 
L 488 750 
Q 750 597 1062 519 
Q 1375 441 1716 441 
Q 2309 441 2620 675 
Q 2931 909 2931 1356 
Q 2931 1769 2642 2001 
Q 2353 2234 1838 2234 
L 1294 2234 
L 1294 2753 
L 1863 2753 
Q 2328 2753 2575 2939 
Q 2822 3125 2822 3475 
Q 2822 3834 2567 4026 
Q 2313 4219 1838 4219 
Q 1578 4219 1281 4162 
Q 984 4106 628 3988 
L 628 4550 
Q 988 4650 1302 4700 
Q 1616 4750 1894 4750 
Q 2613 4750 3031 4423 
Q 3450 4097 3450 3541 
Q 3450 3153 3228 2886 
Q 3006 2619 2597 2516 
z
" transform="scale(0.015625)"/>
       </defs>
       <use xlink:href="#DejaVuSans-33"/>
      </g>
     </g>
    </g>
    <g id="xtick_4">
     <g id="line2d_4">
      <g>
       <use xlink:href="#mf9da128430" x="120.769378" y="164.777143" style="stroke: #000000; stroke-width: 0.8"/>
      </g>
     </g>
     <g id="text_4">
      <!-- 5 -->
      <g transform="translate(117.588128 179.37558) scale(0.1 -0.1)">
       <defs>
        <path id="DejaVuSans-35" d="M 691 4666 
L 3169 4666 
L 3169 4134 
L 1269 4134 
L 1269 2991 
Q 1406 3038 1543 3061 
Q 1681 3084 1819 3084 
Q 2600 3084 3056 2656 
Q 3513 2228 3513 1497 
Q 3513 744 3044 326 
Q 2575 -91 1722 -91 
Q 1428 -91 1123 -41 
Q 819 9 494 109 
L 494 744 
Q 775 591 1075 516 
Q 1375 441 1709 441 
Q 2250 441 2565 725 
Q 2881 1009 2881 1497 
Q 2881 1984 2565 2268 
Q 2250 2553 1709 2553 
Q 1456 2553 1204 2497 
Q 953 2441 691 2322 
L 691 4666 
z
" transform="scale(0.015625)"/>
       </defs>
       <use xlink:href="#DejaVuSans-35"/>
      </g>
     </g>
    </g>
    <g id="xtick_5">
     <g id="line2d_5">
      <g>
       <use xlink:href="#mf9da128430" x="156.367464" y="164.777143" style="stroke: #000000; stroke-width: 0.8"/>
      </g>
     </g>
     <g id="text_5">
      <!-- 10 -->
      <g transform="translate(150.004964 179.37558) scale(0.1 -0.1)">
       <defs>
        <path id="DejaVuSans-30" d="M 2034 4250 
Q 1547 4250 1301 3770 
Q 1056 3291 1056 2328 
Q 1056 1369 1301 889 
Q 1547 409 2034 409 
Q 2525 409 2770 889 
Q 3016 1369 3016 2328 
Q 3016 3291 2770 3770 
Q 2525 4250 2034 4250 
z
M 2034 4750 
Q 2819 4750 3233 4129 
Q 3647 3509 3647 2328 
Q 3647 1150 3233 529 
Q 2819 -91 2034 -91 
Q 1250 -91 836 529 
Q 422 1150 422 2328 
Q 422 3509 836 4129 
Q 1250 4750 2034 4750 
z
" transform="scale(0.015625)"/>
       </defs>
       <use xlink:href="#DejaVuSans-31"/>
       <use xlink:href="#DejaVuSans-30" transform="translate(63.623047 0)"/>
      </g>
     </g>
    </g>
    <g id="xtick_6">
     <g id="line2d_6">
      <g>
       <use xlink:href="#mf9da128430" x="227.563636" y="164.777143" style="stroke: #000000; stroke-width: 0.8"/>
      </g>
     </g>
     <g id="text_6">
      <!-- 20 -->
      <g transform="translate(221.201136 179.37558) scale(0.1 -0.1)">
       <use xlink:href="#DejaVuSans-32"/>
       <use xlink:href="#DejaVuSans-30" transform="translate(63.623047 0)"/>
      </g>
     </g>
    </g>
    <g id="xtick_7">
     <g id="line2d_7">
      <g>
       <use xlink:href="#mf9da128430" x="298.759809" y="164.777143" style="stroke: #000000; stroke-width: 0.8"/>
      </g>
     </g>
     <g id="text_7">
      <!-- 30 -->
      <g transform="translate(292.397309 179.37558) scale(0.1 -0.1)">
       <use xlink:href="#DejaVuSans-33"/>
       <use xlink:href="#DejaVuSans-30" transform="translate(63.623047 0)"/>
      </g>
     </g>
    </g>
    <g id="xtick_8">
     <g id="line2d_8">
      <g>
       <use xlink:href="#mf9da128430" x="369.955981" y="164.777143" style="stroke: #000000; stroke-width: 0.8"/>
      </g>
     </g>
     <g id="text_8">
      <!-- 40 -->
      <g transform="translate(363.593481 179.37558) scale(0.1 -0.1)">
       <defs>
        <path id="DejaVuSans-34" d="M 2419 4116 
L 825 1625 
L 2419 1625 
L 2419 4116 
z
M 2253 4666 
L 3047 4666 
L 3047 1625 
L 3713 1625 
L 3713 1100 
L 3047 1100 
L 3047 0 
L 2419 0 
L 2419 1100 
L 313 1100 
L 313 1709 
L 2253 4666 
z
" transform="scale(0.015625)"/>
       </defs>
       <use xlink:href="#DejaVuSans-34"/>
       <use xlink:href="#DejaVuSans-30" transform="translate(63.623047 0)"/>
      </g>
     </g>
    </g>
    <g id="xtick_9">
     <g id="line2d_9">
      <g>
       <use xlink:href="#mf9da128430" x="441.152153" y="164.777143" style="stroke: #000000; stroke-width: 0.8"/>
      </g>
     </g>
     <g id="text_9">
      <!-- 50 -->
      <g transform="translate(434.789653 179.37558) scale(0.1 -0.1)">
       <use xlink:href="#DejaVuSans-35"/>
       <use xlink:href="#DejaVuSans-30" transform="translate(63.623047 0)"/>
      </g>
     </g>
    </g>
    <g id="xtick_10">
     <g id="line2d_10">
      <g>
       <use xlink:href="#mf9da128430" x="512.348325" y="164.777143" style="stroke: #000000; stroke-width: 0.8"/>
      </g>
     </g>
     <g id="text_10">
      <!-- 60 -->
      <g transform="translate(505.985825 179.37558) scale(0.1 -0.1)">
       <defs>
        <path id="DejaVuSans-36" d="M 2113 2584 
Q 1688 2584 1439 2293 
Q 1191 2003 1191 1497 
Q 1191 994 1439 701 
Q 1688 409 2113 409 
Q 2538 409 2786 701 
Q 3034 994 3034 1497 
Q 3034 2003 2786 2293 
Q 2538 2584 2113 2584 
z
M 3366 4563 
L 3366 3988 
Q 3128 4100 2886 4159 
Q 2644 4219 2406 4219 
Q 1781 4219 1451 3797 
Q 1122 3375 1075 2522 
Q 1259 2794 1537 2939 
Q 1816 3084 2150 3084 
Q 2853 3084 3261 2657 
Q 3669 2231 3669 1497 
Q 3669 778 3244 343 
Q 2819 -91 2113 -91 
Q 1303 -91 875 529 
Q 447 1150 447 2328 
Q 447 3434 972 4092 
Q 1497 4750 2381 4750 
Q 2619 4750 2861 4703 
Q 3103 4656 3366 4563 
z
" transform="scale(0.015625)"/>
       </defs>
       <use xlink:href="#DejaVuSans-36"/>
       <use xlink:href="#DejaVuSans-30" transform="translate(63.623047 0)"/>
      </g>
     </g>
    </g>
   </g>
   <g id="matplotlib.axis_2">
    <g id="ytick_1">
     <g id="line2d_11">
      <defs>
       <path id="m81e623cc6d" d="M 0 0 
L -3.5 0 
" style="stroke: #000000; stroke-width: 0.8"/>
      </defs>
      <g>
       <use xlink:href="#m81e623cc6d" x="72" y="47.211429" style="stroke: #000000; stroke-width: 0.8"/>
      </g>
     </g>
     <g id="text_11">
      <!-- E-NER -->
      <g transform="translate(34.325 51.010647) scale(0.1 -0.1)">
       <defs>
        <path id="DejaVuSans-45" d="M 628 4666 
L 3578 4666 
L 3578 4134 
L 1259 4134 
L 1259 2753 
L 3481 2753 
L 3481 2222 
L 1259 2222 
L 1259 531 
L 3634 531 
L 3634 0 
L 628 0 
L 628 4666 
z
" transform="scale(0.015625)"/>
        <path id="DejaVuSans-2d" d="M 313 2009 
L 1997 2009 
L 1997 1497 
L 313 1497 
L 313 2009 
z
" transform="scale(0.015625)"/>
        <path id="DejaVuSans-4e" d="M 628 4666 
L 1478 4666 
L 3547 763 
L 3547 4666 
L 4159 4666 
L 4159 0 
L 3309 0 
L 1241 3903 
L 1241 0 
L 628 0 
L 628 4666 
z
" transform="scale(0.015625)"/>
        <path id="DejaVuSans-52" d="M 2841 2188 
Q 3044 2119 3236 1894 
Q 3428 1669 3622 1275 
L 4263 0 
L 3584 0 
L 2988 1197 
Q 2756 1666 2539 1819 
Q 2322 1972 1947 1972 
L 1259 1972 
L 1259 0 
L 628 0 
L 628 4666 
L 2053 4666 
Q 2853 4666 3247 4331 
Q 3641 3997 3641 3322 
Q 3641 2881 3436 2590 
Q 3231 2300 2841 2188 
z
M 1259 4147 
L 1259 2491 
L 2053 2491 
Q 2509 2491 2742 2702 
Q 2975 2913 2975 3322 
Q 2975 3731 2742 3939 
Q 2509 4147 2053 4147 
L 1259 4147 
z
" transform="scale(0.015625)"/>
       </defs>
       <use xlink:href="#DejaVuSans-45"/>
       <use xlink:href="#DejaVuSans-2d" transform="translate(63.183594 0)"/>
       <use xlink:href="#DejaVuSans-4e" transform="translate(99.267578 0)"/>
       <use xlink:href="#DejaVuSans-45" transform="translate(174.072266 0)"/>
       <use xlink:href="#DejaVuSans-52" transform="translate(237.255859 0)"/>
      </g>
     </g>
    </g>
    <g id="ytick_2">
     <g id="line2d_12">
      <g>
       <use xlink:href="#m81e623cc6d" x="72" y="93.497143" style="stroke: #000000; stroke-width: 0.8"/>
      </g>
     </g>
     <g id="text_12">
      <!-- LeNER-Br -->
      <g transform="translate(18.884375 97.296362) scale(0.1 -0.1)">
       <defs>
        <path id="DejaVuSans-4c" d="M 628 4666 
L 1259 4666 
L 1259 531 
L 3531 531 
L 3531 0 
L 628 0 
L 628 4666 
z
" transform="scale(0.015625)"/>
        <path id="DejaVuSans-65" d="M 3597 1894 
L 3597 1613 
L 953 1613 
Q 991 1019 1311 708 
Q 1631 397 2203 397 
Q 2534 397 2845 478 
Q 3156 559 3463 722 
L 3463 178 
Q 3153 47 2828 -22 
Q 2503 -91 2169 -91 
Q 1331 -91 842 396 
Q 353 884 353 1716 
Q 353 2575 817 3079 
Q 1281 3584 2069 3584 
Q 2775 3584 3186 3129 
Q 3597 2675 3597 1894 
z
M 3022 2063 
Q 3016 2534 2758 2815 
Q 2500 3097 2075 3097 
Q 1594 3097 1305 2825 
Q 1016 2553 972 2059 
L 3022 2063 
z
" transform="scale(0.015625)"/>
        <path id="DejaVuSans-42" d="M 1259 2228 
L 1259 519 
L 2272 519 
Q 2781 519 3026 730 
Q 3272 941 3272 1375 
Q 3272 1813 3026 2020 
Q 2781 2228 2272 2228 
L 1259 2228 
z
M 1259 4147 
L 1259 2741 
L 2194 2741 
Q 2656 2741 2882 2914 
Q 3109 3088 3109 3444 
Q 3109 3797 2882 3972 
Q 2656 4147 2194 4147 
L 1259 4147 
z
M 628 4666 
L 2241 4666 
Q 2963 4666 3353 4366 
Q 3744 4066 3744 3513 
Q 3744 3084 3544 2831 
Q 3344 2578 2956 2516 
Q 3422 2416 3680 2098 
Q 3938 1781 3938 1306 
Q 3938 681 3513 340 
Q 3088 0 2303 0 
L 628 0 
L 628 4666 
z
" transform="scale(0.015625)"/>
        <path id="DejaVuSans-72" d="M 2631 2963 
Q 2534 3019 2420 3045 
Q 2306 3072 2169 3072 
Q 1681 3072 1420 2755 
Q 1159 2438 1159 1844 
L 1159 0 
L 581 0 
L 581 3500 
L 1159 3500 
L 1159 2956 
Q 1341 3275 1631 3429 
Q 1922 3584 2338 3584 
Q 2397 3584 2469 3576 
Q 2541 3569 2628 3553 
L 2631 2963 
z
" transform="scale(0.015625)"/>
       </defs>
       <use xlink:href="#DejaVuSans-4c"/>
       <use xlink:href="#DejaVuSans-65" transform="translate(53.962891 0)"/>
       <use xlink:href="#DejaVuSans-4e" transform="translate(115.486328 0)"/>
       <use xlink:href="#DejaVuSans-45" transform="translate(190.291016 0)"/>
       <use xlink:href="#DejaVuSans-52" transform="translate(253.474609 0)"/>
       <use xlink:href="#DejaVuSans-2d" transform="translate(318.957031 0)"/>
       <use xlink:href="#DejaVuSans-42" transform="translate(351.416016 0)"/>
       <use xlink:href="#DejaVuSans-72" transform="translate(420.019531 0)"/>
      </g>
     </g>
    </g>
    <g id="ytick_3">
     <g id="line2d_13">
      <g>
       <use xlink:href="#m81e623cc6d" x="72" y="139.782857" style="stroke: #000000; stroke-width: 0.8"/>
      </g>
     </g>
     <g id="text_13">
      <!-- NeuralShift -->
      <g transform="translate(9.28125 143.582076) scale(0.1 -0.1)">
       <defs>
        <path id="DejaVuSans-75" d="M 544 1381 
L 544 3500 
L 1119 3500 
L 1119 1403 
Q 1119 906 1312 657 
Q 1506 409 1894 409 
Q 2359 409 2629 706 
Q 2900 1003 2900 1516 
L 2900 3500 
L 3475 3500 
L 3475 0 
L 2900 0 
L 2900 538 
Q 2691 219 2414 64 
Q 2138 -91 1772 -91 
Q 1169 -91 856 284 
Q 544 659 544 1381 
z
M 1991 3584 
L 1991 3584 
z
" transform="scale(0.015625)"/>
        <path id="DejaVuSans-61" d="M 2194 1759 
Q 1497 1759 1228 1600 
Q 959 1441 959 1056 
Q 959 750 1161 570 
Q 1363 391 1709 391 
Q 2188 391 2477 730 
Q 2766 1069 2766 1631 
L 2766 1759 
L 2194 1759 
z
M 3341 1997 
L 3341 0 
L 2766 0 
L 2766 531 
Q 2569 213 2275 61 
Q 1981 -91 1556 -91 
Q 1019 -91 701 211 
Q 384 513 384 1019 
Q 384 1609 779 1909 
Q 1175 2209 1959 2209 
L 2766 2209 
L 2766 2266 
Q 2766 2663 2505 2880 
Q 2244 3097 1772 3097 
Q 1472 3097 1187 3025 
Q 903 2953 641 2809 
L 641 3341 
Q 956 3463 1253 3523 
Q 1550 3584 1831 3584 
Q 2591 3584 2966 3190 
Q 3341 2797 3341 1997 
z
" transform="scale(0.015625)"/>
        <path id="DejaVuSans-6c" d="M 603 4863 
L 1178 4863 
L 1178 0 
L 603 0 
L 603 4863 
z
" transform="scale(0.015625)"/>
        <path id="DejaVuSans-53" d="M 3425 4513 
L 3425 3897 
Q 3066 4069 2747 4153 
Q 2428 4238 2131 4238 
Q 1616 4238 1336 4038 
Q 1056 3838 1056 3469 
Q 1056 3159 1242 3001 
Q 1428 2844 1947 2747 
L 2328 2669 
Q 3034 2534 3370 2195 
Q 3706 1856 3706 1288 
Q 3706 609 3251 259 
Q 2797 -91 1919 -91 
Q 1588 -91 1214 -16 
Q 841 59 441 206 
L 441 856 
Q 825 641 1194 531 
Q 1563 422 1919 422 
Q 2459 422 2753 634 
Q 3047 847 3047 1241 
Q 3047 1584 2836 1778 
Q 2625 1972 2144 2069 
L 1759 2144 
Q 1053 2284 737 2584 
Q 422 2884 422 3419 
Q 422 4038 858 4394 
Q 1294 4750 2059 4750 
Q 2388 4750 2728 4690 
Q 3069 4631 3425 4513 
z
" transform="scale(0.015625)"/>
        <path id="DejaVuSans-68" d="M 3513 2113 
L 3513 0 
L 2938 0 
L 2938 2094 
Q 2938 2591 2744 2837 
Q 2550 3084 2163 3084 
Q 1697 3084 1428 2787 
Q 1159 2491 1159 1978 
L 1159 0 
L 581 0 
L 581 4863 
L 1159 4863 
L 1159 2956 
Q 1366 3272 1645 3428 
Q 1925 3584 2291 3584 
Q 2894 3584 3203 3211 
Q 3513 2838 3513 2113 
z
" transform="scale(0.015625)"/>
        <path id="DejaVuSans-69" d="M 603 3500 
L 1178 3500 
L 1178 0 
L 603 0 
L 603 3500 
z
M 603 4863 
L 1178 4863 
L 1178 4134 
L 603 4134 
L 603 4863 
z
" transform="scale(0.015625)"/>
        <path id="DejaVuSans-66" d="M 2375 4863 
L 2375 4384 
L 1825 4384 
Q 1516 4384 1395 4259 
Q 1275 4134 1275 3809 
L 1275 3500 
L 2222 3500 
L 2222 3053 
L 1275 3053 
L 1275 0 
L 697 0 
L 697 3053 
L 147 3053 
L 147 3500 
L 697 3500 
L 697 3744 
Q 697 4328 969 4595 
Q 1241 4863 1831 4863 
L 2375 4863 
z
" transform="scale(0.015625)"/>
        <path id="DejaVuSans-74" d="M 1172 4494 
L 1172 3500 
L 2356 3500 
L 2356 3053 
L 1172 3053 
L 1172 1153 
Q 1172 725 1289 603 
Q 1406 481 1766 481 
L 2356 481 
L 2356 0 
L 1766 0 
Q 1100 0 847 248 
Q 594 497 594 1153 
L 594 3053 
L 172 3053 
L 172 3500 
L 594 3500 
L 594 4494 
L 1172 4494 
z
" transform="scale(0.015625)"/>
       </defs>
       <use xlink:href="#DejaVuSans-4e"/>
       <use xlink:href="#DejaVuSans-65" transform="translate(74.804688 0)"/>
       <use xlink:href="#DejaVuSans-75" transform="translate(136.328125 0)"/>
       <use xlink:href="#DejaVuSans-72" transform="translate(199.707031 0)"/>
       <use xlink:href="#DejaVuSans-61" transform="translate(240.820312 0)"/>
       <use xlink:href="#DejaVuSans-6c" transform="translate(302.099609 0)"/>
       <use xlink:href="#DejaVuSans-53" transform="translate(329.882812 0)"/>
       <use xlink:href="#DejaVuSans-68" transform="translate(393.359375 0)"/>
       <use xlink:href="#DejaVuSans-69" transform="translate(456.738281 0)"/>
       <use xlink:href="#DejaVuSans-66" transform="translate(484.521484 0)"/>
       <use xlink:href="#DejaVuSans-74" transform="translate(517.976562 0)"/>
      </g>
     </g>
    </g>
   </g>
   <g id="patch_3">
    <path d="M 72 164.777143 
L 72 22.217143 
" style="fill: none; stroke: #000000; stroke-width: 0.8; stroke-linejoin: miter; stroke-linecap: square"/>
   </g>
   <g id="patch_4">
    <path d="M 518.4 164.777143 
L 518.4 22.217143 
" style="fill: none; stroke: #000000; stroke-width: 0.8; stroke-linejoin: miter; stroke-linecap: square"/>
   </g>
   <g id="patch_5">
    <path d="M 72 164.777143 
L 518.4 164.777143 
" style="fill: none; stroke: #000000; stroke-width: 0.8; stroke-linejoin: miter; stroke-linecap: square"/>
   </g>
   <g id="patch_6">
    <path d="M 72 22.217143 
L 518.4 22.217143 
" style="fill: none; stroke: #000000; stroke-width: 0.8; stroke-linejoin: miter; stroke-linecap: square"/>
   </g>
   <g id="PathCollection_1">
    <defs>
     <path id="m0592fade7d" d="M 0 2.236068 
C 0.593012 2.236068 1.161816 2.000462 1.581139 1.581139 
C 2.000462 1.161816 2.236068 0.593012 2.236068 0 
C 2.236068 -0.593012 2.000462 -1.161816 1.581139 -1.581139 
C 1.161816 -2.000462 0.593012 -2.236068 0 -2.236068 
C -0.593012 -2.236068 -1.161816 -2.000462 -1.581139 -1.581139 
C -2.000462 -1.161816 -2.236068 -0.593012 -2.236068 0 
C -2.236068 0.593012 -2.000462 1.161816 -1.581139 1.581139 
C -1.161816 2.000462 -0.593012 2.236068 0 2.236068 
z
" style="stroke: #000000"/>
    </defs>
    <g clip-path="url(#pff6a62a495)">
     <use xlink:href="#m0592fade7d" x="106.530144" y="47.211429" style="fill: #ffffff; stroke: #000000"/>
    </g>
   </g>
   <g id="PathCollection_2">
    <g clip-path="url(#pff6a62a495)">
     <use xlink:href="#m0592fade7d" x="99.410526" y="93.497143" style="fill: #ffffff; stroke: #000000"/>
    </g>
   </g>
   <g id="PathCollection_3">
    <g clip-path="url(#pff6a62a495)">
     <use xlink:href="#m0592fade7d" x="120.769378" y="139.782857" style="fill: #ffffff; stroke: #000000"/>
    </g>
   </g>
  </g>
 </g>
 <defs>
  <clipPath id="pff6a62a495">
   <rect x="72" y="22.217143" width="446.4" height="142.56"/>
  </clipPath>
 </defs>
</svg>
