<?xml version="1.0" encoding="utf-8" standalone="no"?>
<!DOCTYPE svg PUBLIC "-//W3C//DTD SVG 1.1//EN"
  "http://www.w3.org/Graphics/SVG/1.1/DTD/svg11.dtd">
<svg xmlns:xlink="http://www.w3.org/1999/xlink" width="576pt" height="432pt" viewBox="0 0 576 432" xmlns="http://www.w3.org/2000/svg" version="1.1">
 <metadata>
  <rdf:RDF xmlns:dc="http://purl.org/dc/elements/1.1/" xmlns:cc="http://creativecommons.org/ns#" xmlns:rdf="http://www.w3.org/1999/02/22-rdf-syntax-ns#">
   <cc:Work>
    <dc:type rdf:resource="http://purl.org/dc/dcmitype/StillImage"/>
    <dc:date>2025-11-11T04:03:48.796719</dc:date>
    <dc:format>image/svg+xml</dc:format>
    <dc:creator>
     <cc:Agent>
      <dc:title>Matplotlib v3.10.3, https://matplotlib.org/</dc:title>
     </cc:Agent>
    </dc:creator>
   </cc:Work>
  </rdf:RDF>
 </metadata>
 <defs>
  <style type="text/css">*{stroke-linejoin: round; stroke-linecap: butt}</style>
 </defs>
 <g id="figure_1">
  <g id="patch_1">
   <path d="M 0 432 
L 576 432 
L 576 0 
L 0 0 
z
" style="fill: #ffffff"/>
  </g>
  <g id="axes_1">
   <g id="patch_2">
    <path d="M 72 384.48 
L 518.4 384.48 
L 518.4 51.84 
L 72 51.84 
z
" style="fill: #ffffff"/>
   </g>
   <g id="FillBetweenPolyCollection_1">
    <defs>
     <path id="m49cf5876c7" d="M 91.694118 -334.280885 
L 91.694118 -360.222645 
L 94.678075 -360.26944 
L 97.662032 -359.909375 
L 100.645989 -359.403768 
L 103.629947 -359.058991 
L 106.613904 -359.136653 
L 109.597861 -359.770506 
L 112.581818 -360.917033 
L 115.565775 -362.35746 
L 118.549733 -363.753534 
L 121.53369 -364.742128 
L 124.517647 -365.04 
L 127.501604 -364.525266 
L 130.485561 -363.269208 
L 133.469519 -361.509156 
L 136.453476 -359.573759 
L 139.437433 -357.787518 
L 142.42139 -356.386087 
L 145.405348 -355.466866 
L 148.389305 -354.985098 
L 151.373262 -354.790342 
L 154.357219 -354.686998 
L 157.341176 -354.497957 
L 160.325134 -354.112577 
L 163.309091 -353.507419 
L 166.293048 -352.737878 
L 169.277005 -351.907922 
L 172.260963 -351.130787 
L 175.24492 -350.494087 
L 178.228877 -350.039048 
L 181.212834 -349.757349 
L 184.196791 -349.603091 
L 187.180749 -349.51346 
L 190.164706 -349.430443 
L 193.148663 -349.317077 
L 196.13262 -349.164449 
L 199.116578 -348.988874 
L 202.100535 -348.821593 
L 205.084492 -348.695154 
L 208.068449 -348.631027 
L 211.052406 -348.63206 
L 214.036364 -348.681564 
L 217.020321 -348.748707 
L 220.004278 -348.798076 
L 222.988235 -348.800161 
L 225.972193 -348.739451 
L 228.95615 -348.617761 
L 231.940107 -348.452142 
L 234.924064 -348.26856 
L 237.908021 -348.093803 
L 240.891979 -347.948347 
L 243.875936 -347.842193 
L 246.859893 -347.774416 
L 249.84385 -347.735878 
L 252.827807 -347.713736 
L 255.811765 -347.696126 
L 258.795722 -347.675635 
L 261.779679 -347.650779 
L 264.763636 -347.625344 
L 267.747594 -347.606074 
L 270.731551 -347.599594 
L 273.715508 -347.609558 
L 276.699465 -347.634908 
L 279.683422 -347.669737 
L 282.66738 -347.704767 
L 285.651337 -347.729982 
L 288.635294 -347.737553 
L 291.619251 -347.724118 
L 294.603209 -347.691667 
L 297.587166 -347.646775 
L 300.571123 -347.598501 
L 303.55508 -347.555673 
L 306.539037 -347.524481 
L 309.522995 -347.50705 
L 312.506952 -347.501334 
L 315.490909 -347.50221 
L 318.474866 -347.50331 
L 321.458824 -347.498972 
L 324.442781 -347.485726 
L 327.426738 -347.462937 
L 330.410695 -347.432542 
L 333.394652 -347.398104 
L 336.37861 -347.363609 
L 339.362567 -347.332417 
L 342.346524 -347.306653 
L 345.330481 -347.2871 
L 348.314439 -347.27348 
L 351.298396 -347.264918 
L 354.282353 -347.260391 
L 357.26631 -347.259056 
L 360.250267 -347.260387 
L 363.234225 -347.264161 
L 366.218182 -347.270313 
L 369.202139 -347.278724 
L 372.186096 -347.289007 
L 375.170053 -347.300361 
L 378.154011 -347.311562 
L 381.137968 -347.321118 
L 384.121925 -347.327572 
L 387.105882 -347.329854 
L 387.105882 -347.173675 
L 387.105882 -347.173675 
L 384.121925 -347.175957 
L 381.137968 -347.182411 
L 378.154011 -347.191967 
L 375.170053 -347.203168 
L 372.186096 -347.214523 
L 369.202139 -347.224805 
L 366.218182 -347.233216 
L 363.234225 -347.239368 
L 360.250267 -347.243143 
L 357.26631 -347.244474 
L 354.282353 -347.243138 
L 351.298396 -347.238612 
L 348.314439 -347.230049 
L 345.330481 -347.216429 
L 342.346524 -347.196877 
L 339.362567 -347.171112 
L 336.37861 -347.13992 
L 333.394652 -347.105425 
L 330.410695 -347.070988 
L 327.426738 -347.040592 
L 324.442781 -347.017804 
L 321.458824 -347.004557 
L 318.474866 -347.000219 
L 315.490909 -347.001319 
L 312.506952 -347.002196 
L 309.522995 -346.99648 
L 306.539037 -346.979049 
L 303.55508 -346.947857 
L 300.571123 -346.905029 
L 297.587166 -346.856754 
L 294.603209 -346.811863 
L 291.619251 -346.779411 
L 288.635294 -346.765976 
L 285.651337 -346.773547 
L 282.66738 -346.798762 
L 279.683422 -346.833792 
L 276.699465 -346.868621 
L 273.715508 -346.893972 
L 270.731551 -346.903935 
L 267.747594 -346.897455 
L 264.763636 -346.878186 
L 261.779679 -346.85275 
L 258.795722 -346.827895 
L 255.811765 -346.807404 
L 252.827807 -346.789793 
L 249.84385 -346.767652 
L 246.859893 -346.729113 
L 243.875936 -346.661337 
L 240.891979 -346.555183 
L 237.908021 -346.409726 
L 234.924064 -346.23497 
L 231.940107 -346.051388 
L 228.95615 -345.885768 
L 225.972193 -345.764078 
L 222.988235 -345.703369 
L 220.004278 -345.705454 
L 217.020321 -345.754822 
L 214.036364 -345.821965 
L 211.052406 -345.871469 
L 208.068449 -345.872502 
L 205.084492 -345.808376 
L 202.100535 -345.681937 
L 199.116578 -345.514655 
L 196.13262 -345.33908 
L 193.148663 -345.186453 
L 190.164706 -345.073087 
L 187.180749 -344.990069 
L 184.196791 -344.900439 
L 181.212834 -344.74618 
L 178.228877 -344.464481 
L 175.24492 -344.009442 
L 172.260963 -343.372743 
L 169.277005 -342.595607 
L 166.293048 -341.765652 
L 163.309091 -340.99611 
L 160.325134 -340.390952 
L 157.341176 -340.005572 
L 154.357219 -339.816531 
L 151.373262 -339.713188 
L 148.389305 -339.518431 
L 145.405348 -339.036663 
L 142.42139 -338.117443 
L 139.437433 -336.716012 
L 136.453476 -334.92977 
L 133.469519 -332.994373 
L 130.485561 -331.234321 
L 127.501604 -329.978263 
L 124.517647 -329.463529 
L 121.53369 -329.761402 
L 118.549733 -330.749996 
L 115.565775 -332.14607 
L 112.581818 -333.586497 
L 109.597861 -334.733024 
L 106.613904 -335.366876 
L 103.629947 -335.444538 
L 100.645989 -335.099761 
L 97.662032 -334.594154 
L 94.678075 -334.234089 
L 91.694118 -334.280885 
z
" style="stroke: #3d3d3d; stroke-width: 1.25"/>
    </defs>
    <g clip-path="url(#pdcb11c19d9)">
     <use xlink:href="#m49cf5876c7" x="0" y="432" style="fill: #3274a1; stroke: #3d3d3d; stroke-width: 1.25"/>
    </g>
   </g>
   <g id="FillBetweenPolyCollection_2">
    <defs>
     <path id="m9c299c9cf4" d="M 91.694118 -287.009039 
L 91.694118 -318.553314 
L 95.009626 -318.981445 
L 98.325134 -319.055604 
L 101.640642 -318.96055 
L 104.95615 -318.893314 
L 108.271658 -318.999491 
L 111.587166 -319.325509 
L 114.902674 -319.804479 
L 118.218182 -320.281447 
L 121.53369 -320.569412 
L 124.849198 -320.515962 
L 128.164706 -320.056517 
L 131.480214 -319.235384 
L 134.795722 -318.188185 
L 138.11123 -317.093614 
L 141.426738 -316.113302 
L 144.742246 -315.341824 
L 148.057754 -314.783662 
L 151.373262 -314.362931 
L 154.68877 -313.959412 
L 158.004278 -313.455683 
L 161.319786 -312.777821 
L 164.635294 -311.916429 
L 167.950802 -310.923368 
L 171.26631 -309.888769 
L 174.581818 -308.909163 
L 177.897326 -308.059006 
L 181.212834 -307.37464 
L 184.528342 -306.85378 
L 187.84385 -306.467556 
L 191.159358 -306.178258 
L 194.474866 -305.955164 
L 197.790374 -305.782969 
L 201.105882 -305.661052 
L 204.42139 -305.595592 
L 207.736898 -305.589033 
L 211.052406 -305.63185 
L 214.367914 -305.700142 
L 217.683422 -305.759972 
L 220.99893 -305.77657 
L 224.314439 -305.724696 
L 227.629947 -305.596158 
L 230.945455 -305.401721 
L 234.260963 -305.166919 
L 237.576471 -304.923557 
L 240.891979 -304.700134 
L 244.207487 -304.514529 
L 247.522995 -304.371143 
L 250.838503 -304.262856 
L 254.154011 -304.176394 
L 257.469519 -304.098717 
L 260.785027 -304.021955 
L 264.100535 -303.945336 
L 267.416043 -303.873848 
L 270.731551 -303.814627 
L 274.047059 -303.77279 
L 277.362567 -303.748444 
L 280.678075 -303.735952 
L 283.993583 -303.725586 
L 287.309091 -303.70676 
L 290.624599 -303.671527 
L 293.940107 -303.617007 
L 297.255615 -303.545974 
L 300.571123 -303.465523 
L 303.886631 -303.384488 
L 307.202139 -303.310626 
L 310.517647 -303.248534 
L 313.833155 -303.198897 
L 317.148663 -303.159089 
L 320.464171 -303.124699 
L 323.779679 -303.091312 
L 327.095187 -303.055918 
L 330.410695 -303.017579 
L 333.726203 -302.977304 
L 337.041711 -302.937374 
L 340.357219 -302.900467 
L 343.672727 -302.868919 
L 346.988235 -302.844309 
L 350.303743 -302.827402 
L 353.619251 -302.818327 
L 356.934759 -302.816835 
L 360.250267 -302.822476 
L 363.565775 -302.834627 
L 366.881283 -302.852371 
L 370.196791 -302.874317 
L 373.512299 -302.898485 
L 376.827807 -302.922371 
L 380.143316 -302.943246 
L 383.458824 -302.958646 
L 386.774332 -302.96691 
L 390.08984 -302.967592 
L 393.405348 -302.961573 
L 396.720856 -302.950814 
L 400.036364 -302.937815 
L 403.351872 -302.924927 
L 406.66738 -302.913778 
L 409.982888 -302.904946 
L 413.298396 -302.897997 
L 416.613904 -302.891817 
L 419.929412 -302.885106 
L 419.929412 -302.677247 
L 419.929412 -302.677247 
L 416.613904 -302.670536 
L 413.298396 -302.664356 
L 409.982888 -302.657407 
L 406.66738 -302.648575 
L 403.351872 -302.637425 
L 400.036364 -302.624538 
L 396.720856 -302.611538 
L 393.405348 -302.60078 
L 390.08984 -302.594761 
L 386.774332 -302.595443 
L 383.458824 -302.603707 
L 380.143316 -302.619107 
L 376.827807 -302.639982 
L 373.512299 -302.663868 
L 370.196791 -302.688035 
L 366.881283 -302.709981 
L 363.565775 -302.727726 
L 360.250267 -302.739876 
L 356.934759 -302.745517 
L 353.619251 -302.744026 
L 350.303743 -302.734951 
L 346.988235 -302.718044 
L 343.672727 -302.693434 
L 340.357219 -302.661886 
L 337.041711 -302.624979 
L 333.726203 -302.585049 
L 330.410695 -302.544774 
L 327.095187 -302.506435 
L 323.779679 -302.471041 
L 320.464171 -302.437654 
L 317.148663 -302.403264 
L 313.833155 -302.363456 
L 310.517647 -302.313819 
L 307.202139 -302.251727 
L 303.886631 -302.177865 
L 300.571123 -302.09683 
L 297.255615 -302.016379 
L 293.940107 -301.945346 
L 290.624599 -301.890826 
L 287.309091 -301.855593 
L 283.993583 -301.836767 
L 280.678075 -301.826401 
L 277.362567 -301.813909 
L 274.047059 -301.789563 
L 270.731551 -301.747726 
L 267.416043 -301.688505 
L 264.100535 -301.617017 
L 260.785027 -301.540398 
L 257.469519 -301.463636 
L 254.154011 -301.385959 
L 250.838503 -301.299497 
L 247.522995 -301.191209 
L 244.207487 -301.047824 
L 240.891979 -300.862219 
L 237.576471 -300.638796 
L 234.260963 -300.395434 
L 230.945455 -300.160632 
L 227.629947 -299.966195 
L 224.314439 -299.837656 
L 220.99893 -299.785783 
L 217.683422 -299.802381 
L 214.367914 -299.862211 
L 211.052406 -299.930503 
L 207.736898 -299.973319 
L 204.42139 -299.966761 
L 201.105882 -299.901301 
L 197.790374 -299.779384 
L 194.474866 -299.607189 
L 191.159358 -299.384095 
L 187.84385 -299.094796 
L 184.528342 -298.708573 
L 181.212834 -298.187713 
L 177.897326 -297.503347 
L 174.581818 -296.65319 
L 171.26631 -295.673584 
L 167.950802 -294.638985 
L 164.635294 -293.645924 
L 161.319786 -292.784532 
L 158.004278 -292.10667 
L 154.68877 -291.602941 
L 151.373262 -291.199422 
L 148.057754 -290.778691 
L 144.742246 -290.220529 
L 141.426738 -289.449051 
L 138.11123 -288.468739 
L 134.795722 -287.374168 
L 131.480214 -286.326969 
L 128.164706 -285.505836 
L 124.849198 -285.046391 
L 121.53369 -284.992941 
L 118.218182 -285.280906 
L 114.902674 -285.757874 
L 111.587166 -286.236844 
L 108.271658 -286.562862 
L 104.95615 -286.669039 
L 101.640642 -286.601803 
L 98.325134 -286.506749 
L 95.009626 -286.580908 
L 91.694118 -287.009039 
z
" style="stroke: #3d3d3d; stroke-width: 1.25"/>
    </defs>
    <g clip-path="url(#pdcb11c19d9)">
     <use xlink:href="#m9c299c9cf4" x="0" y="432" style="fill: #e1812c; stroke: #3d3d3d; stroke-width: 1.25"/>
    </g>
   </g>
   <g id="FillBetweenPolyCollection_3">
    <defs>
     <path id="m86a864f3fd" d="M 91.694118 -245.88809 
L 91.694118 -270.733087 
L 95.672727 -271.093886 
L 99.651337 -271.12715 
L 103.629947 -271.243952 
L 107.608556 -271.797538 
L 111.587166 -272.890485 
L 115.565775 -274.293673 
L 119.544385 -275.531389 
L 123.522995 -276.098824 
L 127.501604 -275.702863 
L 131.480214 -274.40046 
L 135.458824 -272.563952 
L 139.437433 -270.697907 
L 143.416043 -269.209974 
L 147.394652 -268.254116 
L 151.373262 -267.714695 
L 155.351872 -267.319602 
L 159.330481 -266.807204 
L 163.309091 -266.056214 
L 167.287701 -265.120658 
L 171.26631 -264.169466 
L 175.24492 -263.378601 
L 179.223529 -262.83932 
L 183.202139 -262.526469 
L 187.180749 -262.332196 
L 191.159358 -262.136119 
L 195.137968 -261.86943 
L 199.116578 -261.540643 
L 203.095187 -261.215641 
L 207.073797 -260.969458 
L 211.052406 -260.839406 
L 215.031016 -260.804298 
L 219.009626 -260.797656 
L 222.988235 -260.744049 
L 226.966845 -260.596917 
L 230.945455 -260.358085 
L 234.924064 -260.071136 
L 238.902674 -259.795494 
L 242.881283 -259.577058 
L 246.859893 -259.430523 
L 250.838503 -259.339966 
L 254.817112 -259.273934 
L 258.795722 -259.204688 
L 262.774332 -259.121202 
L 266.752941 -259.030651 
L 270.731551 -258.949876 
L 274.71016 -258.893163 
L 278.68877 -258.863375 
L 282.66738 -258.85058 
L 286.645989 -258.837749 
L 290.624599 -258.809549 
L 294.603209 -258.759273 
L 298.581818 -258.690714 
L 302.560428 -258.614909 
L 306.539037 -258.544298 
L 310.517647 -258.487665 
L 314.496257 -258.448025 
L 318.474866 -258.423681 
L 322.453476 -258.411023 
L 326.432086 -258.407177 
L 330.410695 -258.411153 
L 334.389305 -258.423193 
L 338.367914 -258.443024 
L 342.346524 -258.468217 
L 346.325134 -258.493802 
L 350.303743 -258.51355 
L 354.282353 -258.522414 
L 358.260963 -258.518813 
L 362.239572 -258.505468 
L 366.218182 -258.48818 
L 370.196791 -258.473135 
L 374.175401 -258.46411 
L 378.154011 -258.460992 
L 382.13262 -258.460264 
L 386.11123 -258.457053 
L 390.08984 -258.447583 
L 394.068449 -258.430787 
L 398.047059 -258.408459 
L 402.025668 -258.38412 
L 406.004278 -258.361416 
L 409.982888 -258.342865 
L 413.961497 -258.329405 
L 417.940107 -258.320656 
L 421.918717 -258.315531 
L 425.897326 -258.312818 
L 429.875936 -258.311522 
L 433.854545 -258.310983 
L 437.833155 -258.310844 
L 441.811765 -258.310991 
L 445.790374 -258.311499 
L 449.768984 -258.312632 
L 453.747594 -258.314835 
L 457.726203 -258.318696 
L 461.704813 -258.324788 
L 465.683422 -258.333405 
L 469.662032 -258.344221 
L 473.640642 -258.35607 
L 477.619251 -258.367011 
L 481.597861 -258.374802 
L 485.576471 -258.377631 
L 485.576471 -258.243545 
L 485.576471 -258.243545 
L 481.597861 -258.246374 
L 477.619251 -258.254165 
L 473.640642 -258.265106 
L 469.662032 -258.276955 
L 465.683422 -258.287772 
L 461.704813 -258.296388 
L 457.726203 -258.302481 
L 453.747594 -258.306341 
L 449.768984 -258.308545 
L 445.790374 -258.309678 
L 441.811765 -258.310186 
L 437.833155 -258.310332 
L 433.854545 -258.310194 
L 429.875936 -258.309654 
L 425.897326 -258.308358 
L 421.918717 -258.305645 
L 417.940107 -258.300521 
L 413.961497 -258.291771 
L 409.982888 -258.278311 
L 406.004278 -258.259761 
L 402.025668 -258.237057 
L 398.047059 -258.212718 
L 394.068449 -258.190389 
L 390.08984 -258.173593 
L 386.11123 -258.164123 
L 382.13262 -258.160913 
L 378.154011 -258.160184 
L 374.175401 -258.157066 
L 370.196791 -258.148042 
L 366.218182 -258.132997 
L 362.239572 -258.115708 
L 358.260963 -258.102363 
L 354.282353 -258.098763 
L 350.303743 -258.107626 
L 346.325134 -258.127375 
L 342.346524 -258.152959 
L 338.367914 -258.178152 
L 334.389305 -258.197983 
L 330.410695 -258.210024 
L 326.432086 -258.213999 
L 322.453476 -258.210153 
L 318.474866 -258.197496 
L 314.496257 -258.173151 
L 310.517647 -258.133511 
L 306.539037 -258.076878 
L 302.560428 -258.006268 
L 298.581818 -257.930462 
L 294.603209 -257.861904 
L 290.624599 -257.811627 
L 286.645989 -257.783427 
L 282.66738 -257.770597 
L 278.68877 -257.757802 
L 274.71016 -257.728013 
L 270.731551 -257.6713 
L 266.752941 -257.590526 
L 262.774332 -257.499975 
L 258.795722 -257.416489 
L 254.817112 -257.347242 
L 250.838503 -257.281211 
L 246.859893 -257.190654 
L 242.881283 -257.044118 
L 238.902674 -256.825683 
L 234.924064 -256.55004 
L 230.945455 -256.263091 
L 226.966845 -256.024259 
L 222.988235 -255.877128 
L 219.009626 -255.82352 
L 215.031016 -255.816879 
L 211.052406 -255.78177 
L 207.073797 -255.651718 
L 203.095187 -255.405536 
L 199.116578 -255.080533 
L 195.137968 -254.751747 
L 191.159358 -254.485057 
L 187.180749 -254.28898 
L 183.202139 -254.094707 
L 179.223529 -253.781857 
L 175.24492 -253.242576 
L 171.26631 -252.451711 
L 167.287701 -251.500518 
L 163.309091 -250.564963 
L 159.330481 -249.813973 
L 155.351872 -249.301574 
L 151.373262 -248.906481 
L 147.394652 -248.36706 
L 143.416043 -247.411202 
L 139.437433 -245.92327 
L 135.458824 -244.057224 
L 131.480214 -242.220717 
L 127.501604 -240.918313 
L 123.522995 -240.522353 
L 119.544385 -241.089788 
L 115.565775 -242.327503 
L 111.587166 -243.730691 
L 107.608556 -244.823639 
L 103.629947 -245.377224 
L 99.651337 -245.494026 
L 95.672727 -245.52729 
L 91.694118 -245.88809 
z
" style="stroke: #3d3d3d; stroke-width: 1.25"/>
    </defs>
    <g clip-path="url(#pdcb11c19d9)">
     <use xlink:href="#m86a864f3fd" x="0" y="432" style="fill: #3a923a; stroke: #3d3d3d; stroke-width: 1.25"/>
    </g>
   </g>
   <g id="FillBetweenPolyCollection_4">
    <defs>
     <path id="m0bf0b1b454" d="M 91.694118 -196.051765 
L 91.694118 -231.628235 
L 94.346524 -231.306329 
L 96.99893 -230.204464 
L 99.651337 -228.61303 
L 102.303743 -226.913472 
L 104.95615 -225.488151 
L 107.608556 -224.631497 
L 110.260963 -224.484921 
L 112.913369 -225.009809 
L 115.565775 -226.003117 
L 118.218182 -227.150823 
L 120.870588 -228.106551 
L 123.522995 -228.576505 
L 126.175401 -228.389277 
L 128.827807 -227.532148 
L 131.480214 -226.144788 
L 134.13262 -224.474151 
L 136.785027 -222.805896 
L 139.437433 -221.393245 
L 142.08984 -220.402213 
L 144.742246 -219.884652 
L 147.394652 -219.781387 
L 150.047059 -219.950323 
L 152.699465 -220.209959 
L 155.351872 -220.387018 
L 158.004278 -220.357191 
L 160.656684 -220.070122 
L 163.309091 -219.553854 
L 165.961497 -218.899271 
L 168.613904 -218.230351 
L 171.26631 -217.669236 
L 173.918717 -217.305438 
L 176.571123 -217.176103 
L 179.223529 -217.26065 
L 181.875936 -217.489504 
L 184.528342 -217.763824 
L 187.180749 -217.981177 
L 189.833155 -218.060936 
L 192.485561 -217.963197 
L 195.137968 -217.696551 
L 197.790374 -217.313053 
L 200.442781 -216.892367 
L 203.095187 -216.519985 
L 205.747594 -216.26558 
L 208.4 -216.166814 
L 211.052406 -216.221917 
L 213.704813 -216.391972 
L 216.357219 -216.611764 
L 219.009626 -216.806335 
L 221.662032 -216.909203 
L 224.314439 -216.877698 
L 226.966845 -216.701492 
L 229.619251 -216.402325 
L 232.271658 -216.025557 
L 234.924064 -215.626733 
L 237.576471 -215.257498 
L 240.228877 -214.954847 
L 242.881283 -214.73594 
L 245.53369 -214.598635 
L 248.186096 -214.526324 
L 250.838503 -214.494908 
L 253.490909 -214.479864 
L 256.143316 -214.461862 
L 258.795722 -214.430058 
L 261.448128 -214.382805 
L 264.100535 -214.326092 
L 266.752941 -214.270414 
L 269.405348 -214.227037 
L 272.057754 -214.204574 
L 274.71016 -214.206609 
L 277.362567 -214.230752 
L 280.014973 -214.269238 
L 282.66738 -214.310823 
L 285.319786 -214.343523 
L 287.972193 -214.357503 
L 290.624599 -214.347368 
L 293.277005 -214.31324 
L 295.929412 -214.260351 
L 298.581818 -214.197356 
L 301.234225 -214.133952 
L 303.886631 -214.078537 
L 306.539037 -214.036534 
L 309.191444 -214.009705 
L 311.84385 -213.996424 
L 314.496257 -213.992665 
L 317.148663 -213.993341 
L 319.80107 -213.99364 
L 322.453476 -213.990058 
L 325.105882 -213.980965 
L 327.758289 -213.96663 
L 330.410695 -213.948783 
L 333.063102 -213.929908 
L 335.715508 -213.912469 
L 338.367914 -213.898313 
L 341.020321 -213.888333 
L 343.672727 -213.882441 
L 346.325134 -213.879773 
L 348.97754 -213.879031 
L 351.629947 -213.87885 
L 354.282353 -213.878114 
L 354.282353 -213.801886 
L 354.282353 -213.801886 
L 351.629947 -213.80115 
L 348.97754 -213.800969 
L 346.325134 -213.800227 
L 343.672727 -213.797559 
L 341.020321 -213.791667 
L 338.367914 -213.781687 
L 335.715508 -213.767531 
L 333.063102 -213.750092 
L 330.410695 -213.731217 
L 327.758289 -213.71337 
L 325.105882 -213.699035 
L 322.453476 -213.689942 
L 319.80107 -213.68636 
L 317.148663 -213.686659 
L 314.496257 -213.687335 
L 311.84385 -213.683576 
L 309.191444 -213.670295 
L 306.539037 -213.643466 
L 303.886631 -213.601463 
L 301.234225 -213.546048 
L 298.581818 -213.482644 
L 295.929412 -213.419649 
L 293.277005 -213.36676 
L 290.624599 -213.332632 
L 287.972193 -213.322497 
L 285.319786 -213.336477 
L 282.66738 -213.369177 
L 280.014973 -213.410762 
L 277.362567 -213.449248 
L 274.71016 -213.473391 
L 272.057754 -213.475426 
L 269.405348 -213.452963 
L 266.752941 -213.409586 
L 264.100535 -213.353908 
L 261.448128 -213.297195 
L 258.795722 -213.249942 
L 256.143316 -213.218138 
L 253.490909 -213.200136 
L 250.838503 -213.185092 
L 248.186096 -213.153676 
L 245.53369 -213.081365 
L 242.881283 -212.94406 
L 240.228877 -212.725153 
L 237.576471 -212.422502 
L 234.924064 -212.053267 
L 232.271658 -211.654443 
L 229.619251 -211.277675 
L 226.966845 -210.978508 
L 224.314439 -210.802302 
L 221.662032 -210.770797 
L 219.009626 -210.873665 
L 216.357219 -211.068236 
L 213.704813 -211.288028 
L 211.052406 -211.458083 
L 208.4 -211.513186 
L 205.747594 -211.41442 
L 203.095187 -211.160015 
L 200.442781 -210.787633 
L 197.790374 -210.366947 
L 195.137968 -209.983449 
L 192.485561 -209.716803 
L 189.833155 -209.619064 
L 187.180749 -209.698823 
L 184.528342 -209.916176 
L 181.875936 -210.190496 
L 179.223529 -210.41935 
L 176.571123 -210.503897 
L 173.918717 -210.374562 
L 171.26631 -210.010764 
L 168.613904 -209.449649 
L 165.961497 -208.780729 
L 163.309091 -208.126146 
L 160.656684 -207.609878 
L 158.004278 -207.322809 
L 155.351872 -207.292982 
L 152.699465 -207.470041 
L 150.047059 -207.729677 
L 147.394652 -207.898613 
L 144.742246 -207.795348 
L 142.08984 -207.277787 
L 139.437433 -206.286755 
L 136.785027 -204.874104 
L 134.13262 -203.205849 
L 131.480214 -201.535212 
L 128.827807 -200.147852 
L 126.175401 -199.290723 
L 123.522995 -199.103495 
L 120.870588 -199.573449 
L 118.218182 -200.529177 
L 115.565775 -201.676883 
L 112.913369 -202.670191 
L 110.260963 -203.195079 
L 107.608556 -203.048503 
L 104.95615 -202.191849 
L 102.303743 -200.766528 
L 99.651337 -199.06697 
L 96.99893 -197.475536 
L 94.346524 -196.373671 
L 91.694118 -196.051765 
z
" style="stroke: #3d3d3d; stroke-width: 1.25"/>
    </defs>
    <g clip-path="url(#pdcb11c19d9)">
     <use xlink:href="#m0bf0b1b454" x="0" y="432" style="fill: #c03d3e; stroke: #3d3d3d; stroke-width: 1.25"/>
    </g>
   </g>
   <g id="FillBetweenPolyCollection_5">
    <defs>
     <path id="m1fd3065216" d="M 91.694118 -151.581176 
L 91.694118 -187.157647 
L 95.672727 -186.893179 
L 99.651337 -185.631126 
L 103.629947 -184.047799 
L 107.608556 -182.831151 
L 111.587166 -182.367631 
L 115.565775 -182.588678 
L 119.544385 -183.050917 
L 123.522995 -183.196706 
L 127.501604 -182.649311 
L 131.480214 -181.387972 
L 135.458824 -179.723754 
L 139.437433 -178.110749 
L 143.416043 -176.910847 
L 147.394652 -176.238948 
L 151.373262 -175.95457 
L 155.351872 -175.780192 
L 159.330481 -175.46586 
L 163.309091 -174.909693 
L 167.287701 -174.181201 
L 171.26631 -173.452582 
L 175.24492 -172.889442 
L 179.223529 -172.564246 
L 183.202139 -172.432881 
L 187.180749 -172.375294 
L 191.159358 -172.268536 
L 195.137968 -172.049469 
L 199.116578 -171.736542 
L 203.095187 -171.405881 
L 207.073797 -171.141307 
L 211.052406 -170.988362 
L 215.031016 -170.935567 
L 219.009626 -170.92846 
L 222.988235 -170.904313 
L 226.966845 -170.82657 
L 230.945455 -170.700903 
L 234.924064 -170.566542 
L 238.902674 -170.470213 
L 242.881283 -170.438402 
L 246.859893 -170.46294 
L 250.838503 -170.506448 
L 254.817112 -170.523227 
L 258.795722 -170.483329 
L 262.774332 -170.386741 
L 266.752941 -170.260889 
L 270.731551 -170.144216 
L 274.71016 -170.065827 
L 278.68877 -170.032174 
L 282.66738 -170.026731 
L 286.645989 -170.021126 
L 290.624599 -169.99055 
L 294.603209 -169.925095 
L 298.581818 -169.83203 
L 302.560428 -169.729516 
L 306.539037 -169.636625 
L 310.517647 -169.565395 
L 314.496257 -169.518237 
L 318.474866 -169.490404 
L 322.453476 -169.47483 
L 326.432086 -169.466308 
L 330.410695 -169.463189 
L 334.389305 -169.466435 
L 338.367914 -169.477144 
L 342.346524 -169.494168 
L 346.325134 -169.513233 
L 350.303743 -169.528076 
L 354.282353 -169.533014 
L 358.260963 -169.525524 
L 362.239572 -169.507347 
L 366.218182 -169.483547 
L 370.196791 -169.460103 
L 374.175401 -169.441416 
L 378.154011 -169.428962 
L 382.13262 -169.421512 
L 386.11123 -169.416464 
L 390.08984 -169.411395 
L 394.068449 -169.405065 
L 398.047059 -169.39757 
L 402.025668 -169.389843 
L 406.004278 -169.382951 
L 409.982888 -169.377584 
L 413.961497 -169.373898 
L 417.940107 -169.371651 
L 421.918717 -169.370428 
L 425.897326 -169.369833 
L 429.875936 -169.369579 
L 433.854545 -169.369502 
L 437.833155 -169.369549 
L 441.811765 -169.369779 
L 445.790374 -169.370404 
L 449.768984 -169.371875 
L 453.747594 -169.374973 
L 457.726203 -169.380819 
L 461.704813 -169.390675 
L 465.683422 -169.405424 
L 469.662032 -169.424833 
L 473.640642 -169.446911 
L 477.619251 -169.467884 
L 481.597861 -169.483101 
L 485.576471 -169.48868 
L 485.576471 -169.250144 
L 485.576471 -169.250144 
L 481.597861 -169.255722 
L 477.619251 -169.27094 
L 473.640642 -169.291912 
L 469.662032 -169.31399 
L 465.683422 -169.333399 
L 461.704813 -169.348149 
L 457.726203 -169.358004 
L 453.747594 -169.363851 
L 449.768984 -169.366948 
L 445.790374 -169.368419 
L 441.811765 -169.369045 
L 437.833155 -169.369275 
L 433.854545 -169.369322 
L 429.875936 -169.369245 
L 425.897326 -169.368991 
L 421.918717 -169.368396 
L 417.940107 -169.367173 
L 413.961497 -169.364925 
L 409.982888 -169.36124 
L 406.004278 -169.355872 
L 402.025668 -169.348981 
L 398.047059 -169.341254 
L 394.068449 -169.333758 
L 390.08984 -169.327428 
L 386.11123 -169.32236 
L 382.13262 -169.317312 
L 378.154011 -169.309861 
L 374.175401 -169.297407 
L 370.196791 -169.278721 
L 366.218182 -169.255277 
L 362.239572 -169.231477 
L 358.260963 -169.2133 
L 354.282353 -169.205809 
L 350.303743 -169.210748 
L 346.325134 -169.22559 
L 342.346524 -169.244655 
L 338.367914 -169.26168 
L 334.389305 -169.272388 
L 330.410695 -169.275635 
L 326.432086 -169.272516 
L 322.453476 -169.263994 
L 318.474866 -169.24842 
L 314.496257 -169.220587 
L 310.517647 -169.173429 
L 306.539037 -169.102199 
L 302.560428 -169.009307 
L 298.581818 -168.906793 
L 294.603209 -168.813728 
L 290.624599 -168.748273 
L 286.645989 -168.717697 
L 282.66738 -168.712093 
L 278.68877 -168.70665 
L 274.71016 -168.672996 
L 270.731551 -168.594607 
L 266.752941 -168.477935 
L 262.774332 -168.352083 
L 258.795722 -168.255495 
L 254.817112 -168.215596 
L 250.838503 -168.232375 
L 246.859893 -168.275883 
L 242.881283 -168.300421 
L 238.902674 -168.268611 
L 234.924064 -168.172281 
L 230.945455 -168.03792 
L 226.966845 -167.912254 
L 222.988235 -167.834511 
L 219.009626 -167.810364 
L 215.031016 -167.803256 
L 211.052406 -167.750462 
L 207.073797 -167.597516 
L 203.095187 -167.332942 
L 199.116578 -167.002282 
L 195.137968 -166.689355 
L 191.159358 -166.470287 
L 187.180749 -166.363529 
L 183.202139 -166.305942 
L 179.223529 -166.174578 
L 175.24492 -165.849382 
L 171.26631 -165.286241 
L 167.287701 -164.557623 
L 163.309091 -163.829131 
L 159.330481 -163.272964 
L 155.351872 -162.958632 
L 151.373262 -162.784254 
L 147.394652 -162.499876 
L 143.416043 -161.827977 
L 139.437433 -160.628074 
L 135.458824 -159.015069 
L 131.480214 -157.350851 
L 127.501604 -156.089512 
L 123.522995 -155.542118 
L 119.544385 -155.687906 
L 115.565775 -156.150145 
L 111.587166 -156.371192 
L 107.608556 -155.907673 
L 103.629947 -154.691024 
L 99.651337 -153.107697 
L 95.672727 -151.845644 
L 91.694118 -151.581176 
z
" style="stroke: #3d3d3d; stroke-width: 1.25"/>
    </defs>
    <g clip-path="url(#pdcb11c19d9)">
     <use xlink:href="#m1fd3065216" x="0" y="432" style="fill: #9372b2; stroke: #3d3d3d; stroke-width: 1.25"/>
    </g>
   </g>
   <g id="FillBetweenPolyCollection_6">
    <defs>
     <path id="m472d2b9e2f" d="M 91.694118 -107.110588 
L 91.694118 -142.687059 
L 93.351872 -142.333224 
L 95.009626 -141.310381 
L 96.66738 -139.74178 
L 98.325134 -137.80726 
L 99.982888 -135.713059 
L 101.640642 -133.66098 
L 103.298396 -131.823614 
L 104.95615 -130.329564 
L 106.613904 -129.259016 
L 108.271658 -128.647051 
L 109.929412 -128.490594 
L 111.587166 -128.755252 
L 113.24492 -129.379931 
L 114.902674 -130.279395 
L 116.560428 -131.346681 
L 118.218182 -132.457979 
L 119.875936 -133.481892 
L 121.53369 -134.293207 
L 123.191444 -134.789187 
L 124.849198 -134.904742 
L 126.506952 -134.622481 
L 128.164706 -133.974645 
L 129.82246 -133.036113 
L 131.480214 -131.910144 
L 133.137968 -130.710434 
L 134.795722 -129.543754 
L 136.453476 -128.496762 
L 138.11123 -127.628932 
L 139.768984 -126.971584 
L 141.426738 -126.531427 
L 143.084492 -126.296324 
L 144.742246 -126.241109 
L 146.4 -126.332175 
L 148.057754 -126.530494 
L 149.715508 -126.793659 
L 151.373262 -127.07783 
L 153.031016 -127.340363 
L 154.68877 -127.543328 
L 156.346524 -127.657482 
L 158.004278 -127.665761 
L 159.662032 -127.56527 
L 161.319786 -127.367026 
L 162.97754 -127.093371 
L 164.635294 -126.773593 
L 166.293048 -126.438801 
L 167.950802 -126.117224 
L 169.608556 -125.830831 
L 171.26631 -125.59374 
L 172.924064 -125.4123 
L 174.581818 -125.286368 
L 176.239572 -125.211137 
L 177.897326 -125.17892 
L 179.55508 -125.180557 
L 181.212834 -125.206326 
L 182.870588 -125.246511 
L 184.528342 -125.291798 
L 186.186096 -125.333711 
L 187.84385 -125.365141 
L 189.501604 -125.380918 
L 191.159358 -125.378292 
L 192.817112 -125.357126 
L 194.474866 -125.319731 
L 196.13262 -125.270311 
L 197.790374 -125.214155 
L 199.448128 -125.156746 
L 201.105882 -125.102976 
L 202.763636 -125.056629 
L 204.42139 -125.020149 
L 206.079144 -124.994684 
L 207.736898 -124.980288 
L 209.394652 -124.976183 
L 211.052406 -124.980978 
L 212.71016 -124.992824 
L 214.367914 -125.00952 
L 216.025668 -125.028601 
L 217.683422 -125.047476 
L 219.341176 -125.063638 
L 220.99893 -125.074931 
L 222.656684 -125.079823 
L 224.314439 -125.077629 
L 225.972193 -125.068607 
L 227.629947 -125.053897 
L 229.287701 -125.03533 
L 230.945455 -125.015147 
L 232.603209 -124.995692 
L 234.260963 -124.979165 
L 235.918717 -124.967449 
L 237.576471 -124.962029 
L 239.234225 -124.963948 
L 240.891979 -124.973774 
L 242.549733 -124.991533 
L 244.207487 -125.016595 
L 245.865241 -125.047569 
L 247.522995 -125.082246 
L 249.180749 -125.117681 
L 250.838503 -125.150435 
L 252.496257 -125.177003 
L 254.154011 -125.19433 
L 255.811765 -125.200323 
L 255.811765 -124.597324 
L 255.811765 -124.597324 
L 254.154011 -124.603317 
L 252.496257 -124.620644 
L 250.838503 -124.647212 
L 249.180749 -124.679966 
L 247.522995 -124.715401 
L 245.865241 -124.750078 
L 244.207487 -124.781052 
L 242.549733 -124.806114 
L 240.891979 -124.823873 
L 239.234225 -124.833699 
L 237.576471 -124.835618 
L 235.918717 -124.830198 
L 234.260963 -124.818482 
L 232.603209 -124.801955 
L 230.945455 -124.7825 
L 229.287701 -124.762317 
L 227.629947 -124.743751 
L 225.972193 -124.72904 
L 224.314439 -124.720018 
L 222.656684 -124.717824 
L 220.99893 -124.722716 
L 219.341176 -124.734009 
L 217.683422 -124.750171 
L 216.025668 -124.769046 
L 214.367914 -124.788127 
L 212.71016 -124.804823 
L 211.052406 -124.81667 
L 209.394652 -124.821464 
L 207.736898 -124.817359 
L 206.079144 -124.802963 
L 204.42139 -124.777498 
L 202.763636 -124.741018 
L 201.105882 -124.694671 
L 199.448128 -124.640901 
L 197.790374 -124.583492 
L 196.13262 -124.527336 
L 194.474866 -124.477916 
L 192.817112 -124.440521 
L 191.159358 -124.419355 
L 189.501604 -124.416729 
L 187.84385 -124.432507 
L 186.186096 -124.463936 
L 184.528342 -124.505849 
L 182.870588 -124.551136 
L 181.212834 -124.591321 
L 179.55508 -124.61709 
L 177.897326 -124.618727 
L 176.239572 -124.58651 
L 174.581818 -124.511279 
L 172.924064 -124.385347 
L 171.26631 -124.203907 
L 169.608556 -123.966816 
L 167.950802 -123.680423 
L 166.293048 -123.358846 
L 164.635294 -123.024055 
L 162.97754 -122.704276 
L 161.319786 -122.430621 
L 159.662032 -122.232377 
L 158.004278 -122.131886 
L 156.346524 -122.140165 
L 154.68877 -122.254319 
L 153.031016 -122.457284 
L 151.373262 -122.719817 
L 149.715508 -123.003988 
L 148.057754 -123.267153 
L 146.4 -123.465472 
L 144.742246 -123.556538 
L 143.084492 -123.501323 
L 141.426738 -123.26622 
L 139.768984 -122.826063 
L 138.11123 -122.168715 
L 136.453476 -121.300885 
L 134.795722 -120.253893 
L 133.137968 -119.087213 
L 131.480214 -117.887503 
L 129.82246 -116.761534 
L 128.164706 -115.823002 
L 126.506952 -115.175166 
L 124.849198 -114.892905 
L 123.191444 -115.00846 
L 121.53369 -115.50444 
L 119.875936 -116.315755 
L 118.218182 -117.339668 
L 116.560428 -118.450966 
L 114.902674 -119.518252 
L 113.24492 -120.417716 
L 111.587166 -121.042395 
L 109.929412 -121.307053 
L 108.271658 -121.150597 
L 106.613904 -120.538631 
L 104.95615 -119.468083 
L 103.298396 -117.974033 
L 101.640642 -116.136667 
L 99.982888 -114.084588 
L 98.325134 -111.990387 
L 96.66738 -110.055867 
L 95.009626 -108.487266 
L 93.351872 -107.464423 
L 91.694118 -107.110588 
z
" style="stroke: #3d3d3d; stroke-width: 1.25"/>
    </defs>
    <g clip-path="url(#pdcb11c19d9)">
     <use xlink:href="#m472d2b9e2f" x="0" y="432" style="fill: #845b53; stroke: #3d3d3d; stroke-width: 1.25"/>
    </g>
   </g>
   <g id="FillBetweenPolyCollection_7">
    <defs>
     <path id="mca31898f03" d="M 91.694118 -62.64 
L 91.694118 -98.216471 
L 95.009626 -97.12376 
L 98.325134 -94.242252 
L 101.640642 -90.587724 
L 104.95615 -87.257754 
L 108.271658 -84.984591 
L 111.587166 -83.971976 
L 114.902674 -83.984743 
L 118.218182 -84.54197 
L 121.53369 -85.113907 
L 124.849198 -85.295455 
L 128.164706 -84.929466 
L 131.480214 -84.130377 
L 134.795722 -83.191477 
L 138.11123 -82.431401 
L 141.426738 -82.065958 
L 144.742246 -82.150822 
L 148.057754 -82.584856 
L 151.373262 -83.151114 
L 154.68877 -83.59025 
L 158.004278 -83.698834 
L 161.319786 -83.413777 
L 164.635294 -82.830369 
L 167.950802 -82.139258 
L 171.26631 -81.52638 
L 174.581818 -81.100166 
L 177.897326 -80.87694 
L 181.212834 -80.809228 
L 184.528342 -80.824604 
L 187.84385 -80.855463 
L 191.159358 -80.856641 
L 194.474866 -80.812564 
L 197.790374 -80.733839 
L 201.105882 -80.645005 
L 204.42139 -80.569857 
L 207.736898 -80.521804 
L 211.052406 -80.502058 
L 214.367914 -80.503107 
L 217.683422 -80.513581 
L 220.99893 -80.522547 
L 224.314439 -80.52281 
L 227.629947 -80.512774 
L 230.945455 -80.496102 
L 234.260963 -80.479329 
L 237.576471 -80.468778 
L 240.891979 -80.46824 
L 244.207487 -80.477903 
L 247.522995 -80.494295 
L 250.838503 -80.511225 
L 254.154011 -80.521897 
L 257.469519 -80.521784 
L 260.785027 -80.51074 
L 264.100535 -80.492922 
L 267.416043 -80.474546 
L 270.731551 -80.461042 
L 274.047059 -80.455215 
L 277.362567 -80.456869 
L 280.678075 -80.463409 
L 283.993583 -80.470906 
L 287.309091 -80.475487 
L 290.624599 -80.47481 
L 293.940107 -80.468986 
L 297.255615 -80.460379 
L 300.571123 -80.452393 
L 303.886631 -80.448022 
L 307.202139 -80.448827 
L 310.517647 -80.454523 
L 313.833155 -80.463048 
L 317.148663 -80.471138 
L 320.464171 -80.475495 
L 323.779679 -80.474203 
L 327.095187 -80.467576 
L 330.410695 -80.457832 
L 333.726203 -80.447803 
L 337.041711 -80.439604 
L 340.357219 -80.434039 
L 343.672727 -80.430839 
L 346.988235 -80.429262 
L 350.303743 -80.428591 
L 353.619251 -80.428344 
L 356.934759 -80.428264 
L 360.250267 -80.428242 
L 363.565775 -80.428237 
L 366.881283 -80.428236 
L 370.196791 -80.428235 
L 373.512299 -80.428235 
L 376.827807 -80.428236 
L 380.143316 -80.42824 
L 383.458824 -80.428254 
L 386.774332 -80.428309 
L 390.08984 -80.428488 
L 393.405348 -80.428992 
L 396.720856 -80.430231 
L 400.036364 -80.432861 
L 403.351872 -80.437654 
L 406.66738 -80.445089 
L 409.982888 -80.454733 
L 413.298396 -80.464844 
L 416.613904 -80.47268 
L 419.929412 -80.475648 
L 419.929412 -80.380823 
L 419.929412 -80.380823 
L 416.613904 -80.383791 
L 413.298396 -80.391626 
L 409.982888 -80.401737 
L 406.66738 -80.411382 
L 403.351872 -80.418816 
L 400.036364 -80.42361 
L 396.720856 -80.426239 
L 393.405348 -80.427478 
L 390.08984 -80.427983 
L 386.774332 -80.428161 
L 383.458824 -80.428216 
L 380.143316 -80.428231 
L 376.827807 -80.428234 
L 373.512299 -80.428235 
L 370.196791 -80.428235 
L 366.881283 -80.428235 
L 363.565775 -80.428234 
L 360.250267 -80.428228 
L 356.934759 -80.428206 
L 353.619251 -80.428127 
L 350.303743 -80.42788 
L 346.988235 -80.427209 
L 343.672727 -80.425632 
L 340.357219 -80.422431 
L 337.041711 -80.416867 
L 333.726203 -80.408667 
L 330.410695 -80.398638 
L 327.095187 -80.388895 
L 323.779679 -80.382268 
L 320.464171 -80.380975 
L 317.148663 -80.385332 
L 313.833155 -80.393422 
L 310.517647 -80.401948 
L 307.202139 -80.407644 
L 303.886631 -80.408449 
L 300.571123 -80.404077 
L 297.255615 -80.396092 
L 293.940107 -80.387484 
L 290.624599 -80.381661 
L 287.309091 -80.380984 
L 283.993583 -80.385565 
L 280.678075 -80.393062 
L 277.362567 -80.399602 
L 274.047059 -80.401256 
L 270.731551 -80.395428 
L 267.416043 -80.381924 
L 264.100535 -80.363548 
L 260.785027 -80.34573 
L 257.469519 -80.334687 
L 254.154011 -80.334574 
L 250.838503 -80.345246 
L 247.522995 -80.362175 
L 244.207487 -80.378568 
L 240.891979 -80.38823 
L 237.576471 -80.387692 
L 234.260963 -80.377142 
L 230.945455 -80.360368 
L 227.629947 -80.343696 
L 224.314439 -80.33366 
L 220.99893 -80.333924 
L 217.683422 -80.342889 
L 214.367914 -80.353364 
L 211.052406 -80.354412 
L 207.736898 -80.334667 
L 204.42139 -80.286613 
L 201.105882 -80.211465 
L 197.790374 -80.122632 
L 194.474866 -80.043907 
L 191.159358 -79.999829 
L 187.84385 -80.001008 
L 184.528342 -80.031866 
L 181.212834 -80.047243 
L 177.897326 -79.979531 
L 174.581818 -79.756305 
L 171.26631 -79.33009 
L 167.950802 -78.717212 
L 164.635294 -78.026101 
L 161.319786 -77.442694 
L 158.004278 -77.157636 
L 154.68877 -77.266221 
L 151.373262 -77.705357 
L 148.057754 -78.271614 
L 144.742246 -78.705649 
L 141.426738 -78.790513 
L 138.11123 -78.42507 
L 134.795722 -77.664993 
L 131.480214 -76.726093 
L 128.164706 -75.927004 
L 124.849198 -75.561016 
L 121.53369 -75.742564 
L 118.218182 -76.314501 
L 114.902674 -76.871728 
L 111.587166 -76.884495 
L 108.271658 -75.87188 
L 104.95615 -73.598717 
L 101.640642 -70.268747 
L 98.325134 -66.614219 
L 95.009626 -63.73271 
L 91.694118 -62.64 
z
" style="stroke: #3d3d3d; stroke-width: 1.25"/>
    </defs>
    <g clip-path="url(#pdcb11c19d9)">
     <use xlink:href="#mca31898f03" x="0" y="432" style="fill: #d684bd; stroke: #3d3d3d; stroke-width: 1.25"/>
    </g>
   </g>
   <g id="matplotlib.axis_1">
    <g id="xtick_1">
     <g id="line2d_1">
      <defs>
       <path id="ma552ac951e" d="M 0 0 
L 0 3.5 
" style="stroke: #000000; stroke-width: 0.8"/>
      </defs>
      <g>
       <use xlink:href="#ma552ac951e" x="91.694118" y="384.48" style="stroke: #000000; stroke-width: 0.8"/>
      </g>
     </g>
     <g id="text_1">
      <!-- 1 -->
      <g transform="translate(88.512868 399.078438) scale(0.1 -0.1)">
       <defs>
        <path id="DejaVuSans-31" d="M 794 531 
L 1825 531 
L 1825 4091 
L 703 3866 
L 703 4441 
L 1819 4666 
L 2450 4666 
L 2450 531 
L 3481 531 
L 3481 0 
L 794 0 
L 794 531 
z
" transform="scale(0.015625)"/>
       </defs>
       <use xlink:href="#DejaVuSans-31"/>
      </g>
     </g>
    </g>
    <g id="xtick_2">
     <g id="line2d_2">
      <g>
       <use xlink:href="#ma552ac951e" x="124.517647" y="384.48" style="stroke: #000000; stroke-width: 0.8"/>
      </g>
     </g>
     <g id="text_2">
      <!-- 2 -->
      <g transform="translate(121.336397 399.078438) scale(0.1 -0.1)">
       <defs>
        <path id="DejaVuSans-32" d="M 1228 531 
L 3431 531 
L 3431 0 
L 469 0 
L 469 531 
Q 828 903 1448 1529 
Q 2069 2156 2228 2338 
Q 2531 2678 2651 2914 
Q 2772 3150 2772 3378 
Q 2772 3750 2511 3984 
Q 2250 4219 1831 4219 
Q 1534 4219 1204 4116 
Q 875 4013 500 3803 
L 500 4441 
Q 881 4594 1212 4672 
Q 1544 4750 1819 4750 
Q 2544 4750 2975 4387 
Q 3406 4025 3406 3419 
Q 3406 3131 3298 2873 
Q 3191 2616 2906 2266 
Q 2828 2175 2409 1742 
Q 1991 1309 1228 531 
z
" transform="scale(0.015625)"/>
       </defs>
       <use xlink:href="#DejaVuSans-32"/>
      </g>
     </g>
    </g>
    <g id="xtick_3">
     <g id="line2d_3">
      <g>
       <use xlink:href="#ma552ac951e" x="157.341176" y="384.48" style="stroke: #000000; stroke-width: 0.8"/>
      </g>
     </g>
     <g id="text_3">
      <!-- 3 -->
      <g transform="translate(154.159926 399.078438) scale(0.1 -0.1)">
       <defs>
        <path id="DejaVuSans-33" d="M 2597 2516 
Q 3050 2419 3304 2112 
Q 3559 1806 3559 1356 
Q 3559 666 3084 287 
Q 2609 -91 1734 -91 
Q 1441 -91 1130 -33 
Q 819 25 488 141 
L 488 750 
Q 750 597 1062 519 
Q 1375 441 1716 441 
Q 2309 441 2620 675 
Q 2931 909 2931 1356 
Q 2931 1769 2642 2001 
Q 2353 2234 1838 2234 
L 1294 2234 
L 1294 2753 
L 1863 2753 
Q 2328 2753 2575 2939 
Q 2822 3125 2822 3475 
Q 2822 3834 2567 4026 
Q 2313 4219 1838 4219 
Q 1578 4219 1281 4162 
Q 984 4106 628 3988 
L 628 4550 
Q 988 4650 1302 4700 
Q 1616 4750 1894 4750 
Q 2613 4750 3031 4423 
Q 3450 4097 3450 3541 
Q 3450 3153 3228 2886 
Q 3006 2619 2597 2516 
z
" transform="scale(0.015625)"/>
       </defs>
       <use xlink:href="#DejaVuSans-33"/>
      </g>
     </g>
    </g>
    <g id="xtick_4">
     <g id="line2d_4">
      <g>
       <use xlink:href="#ma552ac951e" x="190.164706" y="384.48" style="stroke: #000000; stroke-width: 0.8"/>
      </g>
     </g>
     <g id="text_4">
      <!-- 4 -->
      <g transform="translate(186.983456 399.078438) scale(0.1 -0.1)">
       <defs>
        <path id="DejaVuSans-34" d="M 2419 4116 
L 825 1625 
L 2419 1625 
L 2419 4116 
z
M 2253 4666 
L 3047 4666 
L 3047 1625 
L 3713 1625 
L 3713 1100 
L 3047 1100 
L 3047 0 
L 2419 0 
L 2419 1100 
L 313 1100 
L 313 1709 
L 2253 4666 
z
" transform="scale(0.015625)"/>
       </defs>
       <use xlink:href="#DejaVuSans-34"/>
      </g>
     </g>
    </g>
    <g id="xtick_5">
     <g id="line2d_5">
      <g>
       <use xlink:href="#ma552ac951e" x="222.988235" y="384.48" style="stroke: #000000; stroke-width: 0.8"/>
      </g>
     </g>
     <g id="text_5">
      <!-- 5 -->
      <g transform="translate(219.806985 399.078438) scale(0.1 -0.1)">
       <defs>
        <path id="DejaVuSans-35" d="M 691 4666 
L 3169 4666 
L 3169 4134 
L 1269 4134 
L 1269 2991 
Q 1406 3038 1543 3061 
Q 1681 3084 1819 3084 
Q 2600 3084 3056 2656 
Q 3513 2228 3513 1497 
Q 3513 744 3044 326 
Q 2575 -91 1722 -91 
Q 1428 -91 1123 -41 
Q 819 9 494 109 
L 494 744 
Q 775 591 1075 516 
Q 1375 441 1709 441 
Q 2250 441 2565 725 
Q 2881 1009 2881 1497 
Q 2881 1984 2565 2268 
Q 2250 2553 1709 2553 
Q 1456 2553 1204 2497 
Q 953 2441 691 2322 
L 691 4666 
z
" transform="scale(0.015625)"/>
       </defs>
       <use xlink:href="#DejaVuSans-35"/>
      </g>
     </g>
    </g>
    <g id="xtick_6">
     <g id="line2d_6">
      <g>
       <use xlink:href="#ma552ac951e" x="255.811765" y="384.48" style="stroke: #000000; stroke-width: 0.8"/>
      </g>
     </g>
     <g id="text_6">
      <!-- 6 -->
      <g transform="translate(252.630515 399.078438) scale(0.1 -0.1)">
       <defs>
        <path id="DejaVuSans-36" d="M 2113 2584 
Q 1688 2584 1439 2293 
Q 1191 2003 1191 1497 
Q 1191 994 1439 701 
Q 1688 409 2113 409 
Q 2538 409 2786 701 
Q 3034 994 3034 1497 
Q 3034 2003 2786 2293 
Q 2538 2584 2113 2584 
z
M 3366 4563 
L 3366 3988 
Q 3128 4100 2886 4159 
Q 2644 4219 2406 4219 
Q 1781 4219 1451 3797 
Q 1122 3375 1075 2522 
Q 1259 2794 1537 2939 
Q 1816 3084 2150 3084 
Q 2853 3084 3261 2657 
Q 3669 2231 3669 1497 
Q 3669 778 3244 343 
Q 2819 -91 2113 -91 
Q 1303 -91 875 529 
Q 447 1150 447 2328 
Q 447 3434 972 4092 
Q 1497 4750 2381 4750 
Q 2619 4750 2861 4703 
Q 3103 4656 3366 4563 
z
" transform="scale(0.015625)"/>
       </defs>
       <use xlink:href="#DejaVuSans-36"/>
      </g>
     </g>
    </g>
    <g id="xtick_7">
     <g id="line2d_7">
      <g>
       <use xlink:href="#ma552ac951e" x="288.635294" y="384.48" style="stroke: #000000; stroke-width: 0.8"/>
      </g>
     </g>
     <g id="text_7">
      <!-- 7 -->
      <g transform="translate(285.454044 399.078438) scale(0.1 -0.1)">
       <defs>
        <path id="DejaVuSans-37" d="M 525 4666 
L 3525 4666 
L 3525 4397 
L 1831 0 
L 1172 0 
L 2766 4134 
L 525 4134 
L 525 4666 
z
" transform="scale(0.015625)"/>
       </defs>
       <use xlink:href="#DejaVuSans-37"/>
      </g>
     </g>
    </g>
    <g id="xtick_8">
     <g id="line2d_8">
      <g>
       <use xlink:href="#ma552ac951e" x="321.458824" y="384.48" style="stroke: #000000; stroke-width: 0.8"/>
      </g>
     </g>
     <g id="text_8">
      <!-- 8 -->
      <g transform="translate(318.277574 399.078438) scale(0.1 -0.1)">
       <defs>
        <path id="DejaVuSans-38" d="M 2034 2216 
Q 1584 2216 1326 1975 
Q 1069 1734 1069 1313 
Q 1069 891 1326 650 
Q 1584 409 2034 409 
Q 2484 409 2743 651 
Q 3003 894 3003 1313 
Q 3003 1734 2745 1975 
Q 2488 2216 2034 2216 
z
M 1403 2484 
Q 997 2584 770 2862 
Q 544 3141 544 3541 
Q 544 4100 942 4425 
Q 1341 4750 2034 4750 
Q 2731 4750 3128 4425 
Q 3525 4100 3525 3541 
Q 3525 3141 3298 2862 
Q 3072 2584 2669 2484 
Q 3125 2378 3379 2068 
Q 3634 1759 3634 1313 
Q 3634 634 3220 271 
Q 2806 -91 2034 -91 
Q 1263 -91 848 271 
Q 434 634 434 1313 
Q 434 1759 690 2068 
Q 947 2378 1403 2484 
z
M 1172 3481 
Q 1172 3119 1398 2916 
Q 1625 2713 2034 2713 
Q 2441 2713 2670 2916 
Q 2900 3119 2900 3481 
Q 2900 3844 2670 4047 
Q 2441 4250 2034 4250 
Q 1625 4250 1398 4047 
Q 1172 3844 1172 3481 
z
" transform="scale(0.015625)"/>
       </defs>
       <use xlink:href="#DejaVuSans-38"/>
      </g>
     </g>
    </g>
    <g id="xtick_9">
     <g id="line2d_9">
      <g>
       <use xlink:href="#ma552ac951e" x="354.282353" y="384.48" style="stroke: #000000; stroke-width: 0.8"/>
      </g>
     </g>
     <g id="text_9">
      <!-- 9 -->
      <g transform="translate(351.101103 399.078438) scale(0.1 -0.1)">
       <defs>
        <path id="DejaVuSans-39" d="M 703 97 
L 703 672 
Q 941 559 1184 500 
Q 1428 441 1663 441 
Q 2288 441 2617 861 
Q 2947 1281 2994 2138 
Q 2813 1869 2534 1725 
Q 2256 1581 1919 1581 
Q 1219 1581 811 2004 
Q 403 2428 403 3163 
Q 403 3881 828 4315 
Q 1253 4750 1959 4750 
Q 2769 4750 3195 4129 
Q 3622 3509 3622 2328 
Q 3622 1225 3098 567 
Q 2575 -91 1691 -91 
Q 1453 -91 1209 -44 
Q 966 3 703 97 
z
M 1959 2075 
Q 2384 2075 2632 2365 
Q 2881 2656 2881 3163 
Q 2881 3666 2632 3958 
Q 2384 4250 1959 4250 
Q 1534 4250 1286 3958 
Q 1038 3666 1038 3163 
Q 1038 2656 1286 2365 
Q 1534 2075 1959 2075 
z
" transform="scale(0.015625)"/>
       </defs>
       <use xlink:href="#DejaVuSans-39"/>
      </g>
     </g>
    </g>
    <g id="xtick_10">
     <g id="line2d_10">
      <g>
       <use xlink:href="#ma552ac951e" x="387.105882" y="384.48" style="stroke: #000000; stroke-width: 0.8"/>
      </g>
     </g>
     <g id="text_10">
      <!-- 10 -->
      <g transform="translate(380.743382 399.078438) scale(0.1 -0.1)">
       <defs>
        <path id="DejaVuSans-30" d="M 2034 4250 
Q 1547 4250 1301 3770 
Q 1056 3291 1056 2328 
Q 1056 1369 1301 889 
Q 1547 409 2034 409 
Q 2525 409 2770 889 
Q 3016 1369 3016 2328 
Q 3016 3291 2770 3770 
Q 2525 4250 2034 4250 
z
M 2034 4750 
Q 2819 4750 3233 4129 
Q 3647 3509 3647 2328 
Q 3647 1150 3233 529 
Q 2819 -91 2034 -91 
Q 1250 -91 836 529 
Q 422 1150 422 2328 
Q 422 3509 836 4129 
Q 1250 4750 2034 4750 
z
" transform="scale(0.015625)"/>
       </defs>
       <use xlink:href="#DejaVuSans-31"/>
       <use xlink:href="#DejaVuSans-30" transform="translate(63.623047 0)"/>
      </g>
     </g>
    </g>
    <g id="xtick_11">
     <g id="line2d_11">
      <g>
       <use xlink:href="#ma552ac951e" x="419.929412" y="384.48" style="stroke: #000000; stroke-width: 0.8"/>
      </g>
     </g>
     <g id="text_11">
      <!-- 11 -->
      <g transform="translate(413.566912 399.078438) scale(0.1 -0.1)">
       <use xlink:href="#DejaVuSans-31"/>
       <use xlink:href="#DejaVuSans-31" transform="translate(63.623047 0)"/>
      </g>
     </g>
    </g>
    <g id="xtick_12">
     <g id="line2d_12">
      <g>
       <use xlink:href="#ma552ac951e" x="452.752941" y="384.48" style="stroke: #000000; stroke-width: 0.8"/>
      </g>
     </g>
     <g id="text_12">
      <!-- 12 -->
      <g transform="translate(446.390441 399.078438) scale(0.1 -0.1)">
       <use xlink:href="#DejaVuSans-31"/>
       <use xlink:href="#DejaVuSans-32" transform="translate(63.623047 0)"/>
      </g>
     </g>
    </g>
    <g id="xtick_13">
     <g id="line2d_13">
      <g>
       <use xlink:href="#ma552ac951e" x="485.576471" y="384.48" style="stroke: #000000; stroke-width: 0.8"/>
      </g>
     </g>
     <g id="text_13">
      <!-- 13 -->
      <g transform="translate(479.213971 399.078438) scale(0.1 -0.1)">
       <use xlink:href="#DejaVuSans-31"/>
       <use xlink:href="#DejaVuSans-33" transform="translate(63.623047 0)"/>
      </g>
     </g>
    </g>
    <g id="xtick_14">
     <g id="line2d_14">
      <g>
       <use xlink:href="#ma552ac951e" x="518.4" y="384.48" style="stroke: #000000; stroke-width: 0.8"/>
      </g>
     </g>
     <g id="text_14">
      <!-- 14 -->
      <g transform="translate(512.0375 399.078438) scale(0.1 -0.1)">
       <use xlink:href="#DejaVuSans-31"/>
       <use xlink:href="#DejaVuSans-34" transform="translate(63.623047 0)"/>
      </g>
     </g>
    </g>
   </g>
   <g id="matplotlib.axis_2">
    <g id="ytick_1">
     <g id="line2d_15">
      <defs>
       <path id="m3579a98f07" d="M 0 0 
L -3.5 0 
" style="stroke: #000000; stroke-width: 0.8"/>
      </defs>
      <g>
       <use xlink:href="#m3579a98f07" x="72" y="84.748235" style="stroke: #000000; stroke-width: 0.8"/>
      </g>
     </g>
     <g id="text_15">
      <!-- CrossNER  AI -->
      <g transform="translate(-2.479687 88.547454) scale(0.1 -0.1)">
       <defs>
        <path id="DejaVuSans-43" d="M 4122 4306 
L 4122 3641 
Q 3803 3938 3442 4084 
Q 3081 4231 2675 4231 
Q 1875 4231 1450 3742 
Q 1025 3253 1025 2328 
Q 1025 1406 1450 917 
Q 1875 428 2675 428 
Q 3081 428 3442 575 
Q 3803 722 4122 1019 
L 4122 359 
Q 3791 134 3420 21 
Q 3050 -91 2638 -91 
Q 1578 -91 968 557 
Q 359 1206 359 2328 
Q 359 3453 968 4101 
Q 1578 4750 2638 4750 
Q 3056 4750 3426 4639 
Q 3797 4528 4122 4306 
z
" transform="scale(0.015625)"/>
        <path id="DejaVuSans-72" d="M 2631 2963 
Q 2534 3019 2420 3045 
Q 2306 3072 2169 3072 
Q 1681 3072 1420 2755 
Q 1159 2438 1159 1844 
L 1159 0 
L 581 0 
L 581 3500 
L 1159 3500 
L 1159 2956 
Q 1341 3275 1631 3429 
Q 1922 3584 2338 3584 
Q 2397 3584 2469 3576 
Q 2541 3569 2628 3553 
L 2631 2963 
z
" transform="scale(0.015625)"/>
        <path id="DejaVuSans-6f" d="M 1959 3097 
Q 1497 3097 1228 2736 
Q 959 2375 959 1747 
Q 959 1119 1226 758 
Q 1494 397 1959 397 
Q 2419 397 2687 759 
Q 2956 1122 2956 1747 
Q 2956 2369 2687 2733 
Q 2419 3097 1959 3097 
z
M 1959 3584 
Q 2709 3584 3137 3096 
Q 3566 2609 3566 1747 
Q 3566 888 3137 398 
Q 2709 -91 1959 -91 
Q 1206 -91 779 398 
Q 353 888 353 1747 
Q 353 2609 779 3096 
Q 1206 3584 1959 3584 
z
" transform="scale(0.015625)"/>
        <path id="DejaVuSans-73" d="M 2834 3397 
L 2834 2853 
Q 2591 2978 2328 3040 
Q 2066 3103 1784 3103 
Q 1356 3103 1142 2972 
Q 928 2841 928 2578 
Q 928 2378 1081 2264 
Q 1234 2150 1697 2047 
L 1894 2003 
Q 2506 1872 2764 1633 
Q 3022 1394 3022 966 
Q 3022 478 2636 193 
Q 2250 -91 1575 -91 
Q 1294 -91 989 -36 
Q 684 19 347 128 
L 347 722 
Q 666 556 975 473 
Q 1284 391 1588 391 
Q 1994 391 2212 530 
Q 2431 669 2431 922 
Q 2431 1156 2273 1281 
Q 2116 1406 1581 1522 
L 1381 1569 
Q 847 1681 609 1914 
Q 372 2147 372 2553 
Q 372 3047 722 3315 
Q 1072 3584 1716 3584 
Q 2034 3584 2315 3537 
Q 2597 3491 2834 3397 
z
" transform="scale(0.015625)"/>
        <path id="DejaVuSans-4e" d="M 628 4666 
L 1478 4666 
L 3547 763 
L 3547 4666 
L 4159 4666 
L 4159 0 
L 3309 0 
L 1241 3903 
L 1241 0 
L 628 0 
L 628 4666 
z
" transform="scale(0.015625)"/>
        <path id="DejaVuSans-45" d="M 628 4666 
L 3578 4666 
L 3578 4134 
L 1259 4134 
L 1259 2753 
L 3481 2753 
L 3481 2222 
L 1259 2222 
L 1259 531 
L 3634 531 
L 3634 0 
L 628 0 
L 628 4666 
z
" transform="scale(0.015625)"/>
        <path id="DejaVuSans-52" d="M 2841 2188 
Q 3044 2119 3236 1894 
Q 3428 1669 3622 1275 
L 4263 0 
L 3584 0 
L 2988 1197 
Q 2756 1666 2539 1819 
Q 2322 1972 1947 1972 
L 1259 1972 
L 1259 0 
L 628 0 
L 628 4666 
L 2053 4666 
Q 2853 4666 3247 4331 
Q 3641 3997 3641 3322 
Q 3641 2881 3436 2590 
Q 3231 2300 2841 2188 
z
M 1259 4147 
L 1259 2491 
L 2053 2491 
Q 2509 2491 2742 2702 
Q 2975 2913 2975 3322 
Q 2975 3731 2742 3939 
Q 2509 4147 2053 4147 
L 1259 4147 
z
" transform="scale(0.015625)"/>
        <path id="DejaVuSans-20" transform="scale(0.015625)"/>
        <path id="DejaVuSans-b7" d="M 684 2619 
L 1344 2619 
L 1344 1825 
L 684 1825 
L 684 2619 
z
" transform="scale(0.015625)"/>
        <path id="DejaVuSans-41" d="M 2188 4044 
L 1331 1722 
L 3047 1722 
L 2188 4044 
z
M 1831 4666 
L 2547 4666 
L 4325 0 
L 3669 0 
L 3244 1197 
L 1141 1197 
L 716 0 
L 50 0 
L 1831 4666 
z
" transform="scale(0.015625)"/>
        <path id="DejaVuSans-49" d="M 628 4666 
L 1259 4666 
L 1259 0 
L 628 0 
L 628 4666 
z
" transform="scale(0.015625)"/>
       </defs>
       <use xlink:href="#DejaVuSans-43"/>
       <use xlink:href="#DejaVuSans-72" transform="translate(69.824219 0)"/>
       <use xlink:href="#DejaVuSans-6f" transform="translate(108.6875 0)"/>
       <use xlink:href="#DejaVuSans-73" transform="translate(169.869141 0)"/>
       <use xlink:href="#DejaVuSans-73" transform="translate(221.96875 0)"/>
       <use xlink:href="#DejaVuSans-4e" transform="translate(274.068359 0)"/>
       <use xlink:href="#DejaVuSans-45" transform="translate(348.873047 0)"/>
       <use xlink:href="#DejaVuSans-52" transform="translate(412.056641 0)"/>
       <use xlink:href="#DejaVuSans-20" transform="translate(481.539062 0)"/>
       <use xlink:href="#DejaVuSans-b7" transform="translate(513.326172 0)"/>
       <use xlink:href="#DejaVuSans-20" transform="translate(545.113281 0)"/>
       <use xlink:href="#DejaVuSans-41" transform="translate(576.900391 0)"/>
       <use xlink:href="#DejaVuSans-49" transform="translate(645.308594 0)"/>
      </g>
     </g>
    </g>
    <g id="ytick_2">
     <g id="line2d_16">
      <g>
       <use xlink:href="#m3579a98f07" x="72" y="129.218824" style="stroke: #000000; stroke-width: 0.8"/>
      </g>
     </g>
     <g id="text_16">
      <!-- CrossNER  Literature -->
      <g transform="translate(-41.648438 133.018042) scale(0.1 -0.1)">
       <defs>
        <path id="DejaVuSans-4c" d="M 628 4666 
L 1259 4666 
L 1259 531 
L 3531 531 
L 3531 0 
L 628 0 
L 628 4666 
z
" transform="scale(0.015625)"/>
        <path id="DejaVuSans-69" d="M 603 3500 
L 1178 3500 
L 1178 0 
L 603 0 
L 603 3500 
z
M 603 4863 
L 1178 4863 
L 1178 4134 
L 603 4134 
L 603 4863 
z
" transform="scale(0.015625)"/>
        <path id="DejaVuSans-74" d="M 1172 4494 
L 1172 3500 
L 2356 3500 
L 2356 3053 
L 1172 3053 
L 1172 1153 
Q 1172 725 1289 603 
Q 1406 481 1766 481 
L 2356 481 
L 2356 0 
L 1766 0 
Q 1100 0 847 248 
Q 594 497 594 1153 
L 594 3053 
L 172 3053 
L 172 3500 
L 594 3500 
L 594 4494 
L 1172 4494 
z
" transform="scale(0.015625)"/>
        <path id="DejaVuSans-65" d="M 3597 1894 
L 3597 1613 
L 953 1613 
Q 991 1019 1311 708 
Q 1631 397 2203 397 
Q 2534 397 2845 478 
Q 3156 559 3463 722 
L 3463 178 
Q 3153 47 2828 -22 
Q 2503 -91 2169 -91 
Q 1331 -91 842 396 
Q 353 884 353 1716 
Q 353 2575 817 3079 
Q 1281 3584 2069 3584 
Q 2775 3584 3186 3129 
Q 3597 2675 3597 1894 
z
M 3022 2063 
Q 3016 2534 2758 2815 
Q 2500 3097 2075 3097 
Q 1594 3097 1305 2825 
Q 1016 2553 972 2059 
L 3022 2063 
z
" transform="scale(0.015625)"/>
        <path id="DejaVuSans-61" d="M 2194 1759 
Q 1497 1759 1228 1600 
Q 959 1441 959 1056 
Q 959 750 1161 570 
Q 1363 391 1709 391 
Q 2188 391 2477 730 
Q 2766 1069 2766 1631 
L 2766 1759 
L 2194 1759 
z
M 3341 1997 
L 3341 0 
L 2766 0 
L 2766 531 
Q 2569 213 2275 61 
Q 1981 -91 1556 -91 
Q 1019 -91 701 211 
Q 384 513 384 1019 
Q 384 1609 779 1909 
Q 1175 2209 1959 2209 
L 2766 2209 
L 2766 2266 
Q 2766 2663 2505 2880 
Q 2244 3097 1772 3097 
Q 1472 3097 1187 3025 
Q 903 2953 641 2809 
L 641 3341 
Q 956 3463 1253 3523 
Q 1550 3584 1831 3584 
Q 2591 3584 2966 3190 
Q 3341 2797 3341 1997 
z
" transform="scale(0.015625)"/>
        <path id="DejaVuSans-75" d="M 544 1381 
L 544 3500 
L 1119 3500 
L 1119 1403 
Q 1119 906 1312 657 
Q 1506 409 1894 409 
Q 2359 409 2629 706 
Q 2900 1003 2900 1516 
L 2900 3500 
L 3475 3500 
L 3475 0 
L 2900 0 
L 2900 538 
Q 2691 219 2414 64 
Q 2138 -91 1772 -91 
Q 1169 -91 856 284 
Q 544 659 544 1381 
z
M 1991 3584 
L 1991 3584 
z
" transform="scale(0.015625)"/>
       </defs>
       <use xlink:href="#DejaVuSans-43"/>
       <use xlink:href="#DejaVuSans-72" transform="translate(69.824219 0)"/>
       <use xlink:href="#DejaVuSans-6f" transform="translate(108.6875 0)"/>
       <use xlink:href="#DejaVuSans-73" transform="translate(169.869141 0)"/>
       <use xlink:href="#DejaVuSans-73" transform="translate(221.96875 0)"/>
       <use xlink:href="#DejaVuSans-4e" transform="translate(274.068359 0)"/>
       <use xlink:href="#DejaVuSans-45" transform="translate(348.873047 0)"/>
       <use xlink:href="#DejaVuSans-52" transform="translate(412.056641 0)"/>
       <use xlink:href="#DejaVuSans-20" transform="translate(481.539062 0)"/>
       <use xlink:href="#DejaVuSans-b7" transform="translate(513.326172 0)"/>
       <use xlink:href="#DejaVuSans-20" transform="translate(545.113281 0)"/>
       <use xlink:href="#DejaVuSans-4c" transform="translate(576.900391 0)"/>
       <use xlink:href="#DejaVuSans-69" transform="translate(632.613281 0)"/>
       <use xlink:href="#DejaVuSans-74" transform="translate(660.396484 0)"/>
       <use xlink:href="#DejaVuSans-65" transform="translate(699.605469 0)"/>
       <use xlink:href="#DejaVuSans-72" transform="translate(761.128906 0)"/>
       <use xlink:href="#DejaVuSans-61" transform="translate(802.242188 0)"/>
       <use xlink:href="#DejaVuSans-74" transform="translate(863.521484 0)"/>
       <use xlink:href="#DejaVuSans-75" transform="translate(902.730469 0)"/>
       <use xlink:href="#DejaVuSans-72" transform="translate(966.109375 0)"/>
       <use xlink:href="#DejaVuSans-65" transform="translate(1004.972656 0)"/>
      </g>
     </g>
    </g>
    <g id="ytick_3">
     <g id="line2d_17">
      <g>
       <use xlink:href="#m3579a98f07" x="72" y="173.689412" style="stroke: #000000; stroke-width: 0.8"/>
      </g>
     </g>
     <g id="text_17">
      <!-- CrossNER  Music -->
      <g transform="translate(-21.140625 177.488631) scale(0.1 -0.1)">
       <defs>
        <path id="DejaVuSans-4d" d="M 628 4666 
L 1569 4666 
L 2759 1491 
L 3956 4666 
L 4897 4666 
L 4897 0 
L 4281 0 
L 4281 4097 
L 3078 897 
L 2444 897 
L 1241 4097 
L 1241 0 
L 628 0 
L 628 4666 
z
" transform="scale(0.015625)"/>
        <path id="DejaVuSans-63" d="M 3122 3366 
L 3122 2828 
Q 2878 2963 2633 3030 
Q 2388 3097 2138 3097 
Q 1578 3097 1268 2742 
Q 959 2388 959 1747 
Q 959 1106 1268 751 
Q 1578 397 2138 397 
Q 2388 397 2633 464 
Q 2878 531 3122 666 
L 3122 134 
Q 2881 22 2623 -34 
Q 2366 -91 2075 -91 
Q 1284 -91 818 406 
Q 353 903 353 1747 
Q 353 2603 823 3093 
Q 1294 3584 2113 3584 
Q 2378 3584 2631 3529 
Q 2884 3475 3122 3366 
z
" transform="scale(0.015625)"/>
       </defs>
       <use xlink:href="#DejaVuSans-43"/>
       <use xlink:href="#DejaVuSans-72" transform="translate(69.824219 0)"/>
       <use xlink:href="#DejaVuSans-6f" transform="translate(108.6875 0)"/>
       <use xlink:href="#DejaVuSans-73" transform="translate(169.869141 0)"/>
       <use xlink:href="#DejaVuSans-73" transform="translate(221.96875 0)"/>
       <use xlink:href="#DejaVuSans-4e" transform="translate(274.068359 0)"/>
       <use xlink:href="#DejaVuSans-45" transform="translate(348.873047 0)"/>
       <use xlink:href="#DejaVuSans-52" transform="translate(412.056641 0)"/>
       <use xlink:href="#DejaVuSans-20" transform="translate(481.539062 0)"/>
       <use xlink:href="#DejaVuSans-b7" transform="translate(513.326172 0)"/>
       <use xlink:href="#DejaVuSans-20" transform="translate(545.113281 0)"/>
       <use xlink:href="#DejaVuSans-4d" transform="translate(576.900391 0)"/>
       <use xlink:href="#DejaVuSans-75" transform="translate(663.179688 0)"/>
       <use xlink:href="#DejaVuSans-73" transform="translate(726.558594 0)"/>
       <use xlink:href="#DejaVuSans-69" transform="translate(778.658203 0)"/>
       <use xlink:href="#DejaVuSans-63" transform="translate(806.441406 0)"/>
      </g>
     </g>
    </g>
    <g id="ytick_4">
     <g id="line2d_18">
      <g>
       <use xlink:href="#m3579a98f07" x="72" y="218.16" style="stroke: #000000; stroke-width: 0.8"/>
      </g>
     </g>
     <g id="text_18">
      <!-- CrossNER  Politics -->
      <g transform="translate(-27.4375 221.959219) scale(0.1 -0.1)">
       <defs>
        <path id="DejaVuSans-50" d="M 1259 4147 
L 1259 2394 
L 2053 2394 
Q 2494 2394 2734 2622 
Q 2975 2850 2975 3272 
Q 2975 3691 2734 3919 
Q 2494 4147 2053 4147 
L 1259 4147 
z
M 628 4666 
L 2053 4666 
Q 2838 4666 3239 4311 
Q 3641 3956 3641 3272 
Q 3641 2581 3239 2228 
Q 2838 1875 2053 1875 
L 1259 1875 
L 1259 0 
L 628 0 
L 628 4666 
z
" transform="scale(0.015625)"/>
        <path id="DejaVuSans-6c" d="M 603 4863 
L 1178 4863 
L 1178 0 
L 603 0 
L 603 4863 
z
" transform="scale(0.015625)"/>
       </defs>
       <use xlink:href="#DejaVuSans-43"/>
       <use xlink:href="#DejaVuSans-72" transform="translate(69.824219 0)"/>
       <use xlink:href="#DejaVuSans-6f" transform="translate(108.6875 0)"/>
       <use xlink:href="#DejaVuSans-73" transform="translate(169.869141 0)"/>
       <use xlink:href="#DejaVuSans-73" transform="translate(221.96875 0)"/>
       <use xlink:href="#DejaVuSans-4e" transform="translate(274.068359 0)"/>
       <use xlink:href="#DejaVuSans-45" transform="translate(348.873047 0)"/>
       <use xlink:href="#DejaVuSans-52" transform="translate(412.056641 0)"/>
       <use xlink:href="#DejaVuSans-20" transform="translate(481.539062 0)"/>
       <use xlink:href="#DejaVuSans-b7" transform="translate(513.326172 0)"/>
       <use xlink:href="#DejaVuSans-20" transform="translate(545.113281 0)"/>
       <use xlink:href="#DejaVuSans-50" transform="translate(576.900391 0)"/>
       <use xlink:href="#DejaVuSans-6f" transform="translate(633.578125 0)"/>
       <use xlink:href="#DejaVuSans-6c" transform="translate(694.759766 0)"/>
       <use xlink:href="#DejaVuSans-69" transform="translate(722.542969 0)"/>
       <use xlink:href="#DejaVuSans-74" transform="translate(750.326172 0)"/>
       <use xlink:href="#DejaVuSans-69" transform="translate(789.535156 0)"/>
       <use xlink:href="#DejaVuSans-63" transform="translate(817.318359 0)"/>
       <use xlink:href="#DejaVuSans-73" transform="translate(872.298828 0)"/>
      </g>
     </g>
    </g>
    <g id="ytick_5">
     <g id="line2d_19">
      <g>
       <use xlink:href="#m3579a98f07" x="72" y="262.630588" style="stroke: #000000; stroke-width: 0.8"/>
      </g>
     </g>
     <g id="text_19">
      <!-- CrossNER  Science -->
      <g transform="translate(-31.45625 266.429807) scale(0.1 -0.1)">
       <defs>
        <path id="DejaVuSans-53" d="M 3425 4513 
L 3425 3897 
Q 3066 4069 2747 4153 
Q 2428 4238 2131 4238 
Q 1616 4238 1336 4038 
Q 1056 3838 1056 3469 
Q 1056 3159 1242 3001 
Q 1428 2844 1947 2747 
L 2328 2669 
Q 3034 2534 3370 2195 
Q 3706 1856 3706 1288 
Q 3706 609 3251 259 
Q 2797 -91 1919 -91 
Q 1588 -91 1214 -16 
Q 841 59 441 206 
L 441 856 
Q 825 641 1194 531 
Q 1563 422 1919 422 
Q 2459 422 2753 634 
Q 3047 847 3047 1241 
Q 3047 1584 2836 1778 
Q 2625 1972 2144 2069 
L 1759 2144 
Q 1053 2284 737 2584 
Q 422 2884 422 3419 
Q 422 4038 858 4394 
Q 1294 4750 2059 4750 
Q 2388 4750 2728 4690 
Q 3069 4631 3425 4513 
z
" transform="scale(0.015625)"/>
        <path id="DejaVuSans-6e" d="M 3513 2113 
L 3513 0 
L 2938 0 
L 2938 2094 
Q 2938 2591 2744 2837 
Q 2550 3084 2163 3084 
Q 1697 3084 1428 2787 
Q 1159 2491 1159 1978 
L 1159 0 
L 581 0 
L 581 3500 
L 1159 3500 
L 1159 2956 
Q 1366 3272 1645 3428 
Q 1925 3584 2291 3584 
Q 2894 3584 3203 3211 
Q 3513 2838 3513 2113 
z
" transform="scale(0.015625)"/>
       </defs>
       <use xlink:href="#DejaVuSans-43"/>
       <use xlink:href="#DejaVuSans-72" transform="translate(69.824219 0)"/>
       <use xlink:href="#DejaVuSans-6f" transform="translate(108.6875 0)"/>
       <use xlink:href="#DejaVuSans-73" transform="translate(169.869141 0)"/>
       <use xlink:href="#DejaVuSans-73" transform="translate(221.96875 0)"/>
       <use xlink:href="#DejaVuSans-4e" transform="translate(274.068359 0)"/>
       <use xlink:href="#DejaVuSans-45" transform="translate(348.873047 0)"/>
       <use xlink:href="#DejaVuSans-52" transform="translate(412.056641 0)"/>
       <use xlink:href="#DejaVuSans-20" transform="translate(481.539062 0)"/>
       <use xlink:href="#DejaVuSans-b7" transform="translate(513.326172 0)"/>
       <use xlink:href="#DejaVuSans-20" transform="translate(545.113281 0)"/>
       <use xlink:href="#DejaVuSans-53" transform="translate(576.900391 0)"/>
       <use xlink:href="#DejaVuSans-63" transform="translate(640.376953 0)"/>
       <use xlink:href="#DejaVuSans-69" transform="translate(695.357422 0)"/>
       <use xlink:href="#DejaVuSans-65" transform="translate(723.140625 0)"/>
       <use xlink:href="#DejaVuSans-6e" transform="translate(784.664062 0)"/>
       <use xlink:href="#DejaVuSans-63" transform="translate(848.042969 0)"/>
       <use xlink:href="#DejaVuSans-65" transform="translate(903.023438 0)"/>
      </g>
     </g>
    </g>
    <g id="ytick_6">
     <g id="line2d_20">
      <g>
       <use xlink:href="#m3579a98f07" x="72" y="307.101176" style="stroke: #000000; stroke-width: 0.8"/>
      </g>
     </g>
     <g id="text_20">
      <!-- MultiNERD  EN -->
      <g transform="translate(-11.225 310.900395) scale(0.1 -0.1)">
       <defs>
        <path id="DejaVuSans-44" d="M 1259 4147 
L 1259 519 
L 2022 519 
Q 2988 519 3436 956 
Q 3884 1394 3884 2338 
Q 3884 3275 3436 3711 
Q 2988 4147 2022 4147 
L 1259 4147 
z
M 628 4666 
L 1925 4666 
Q 3281 4666 3915 4102 
Q 4550 3538 4550 2338 
Q 4550 1131 3912 565 
Q 3275 0 1925 0 
L 628 0 
L 628 4666 
z
" transform="scale(0.015625)"/>
       </defs>
       <use xlink:href="#DejaVuSans-4d"/>
       <use xlink:href="#DejaVuSans-75" transform="translate(86.279297 0)"/>
       <use xlink:href="#DejaVuSans-6c" transform="translate(149.658203 0)"/>
       <use xlink:href="#DejaVuSans-74" transform="translate(177.441406 0)"/>
       <use xlink:href="#DejaVuSans-69" transform="translate(216.650391 0)"/>
       <use xlink:href="#DejaVuSans-4e" transform="translate(244.433594 0)"/>
       <use xlink:href="#DejaVuSans-45" transform="translate(319.238281 0)"/>
       <use xlink:href="#DejaVuSans-52" transform="translate(382.421875 0)"/>
       <use xlink:href="#DejaVuSans-44" transform="translate(451.904297 0)"/>
       <use xlink:href="#DejaVuSans-20" transform="translate(528.90625 0)"/>
       <use xlink:href="#DejaVuSans-b7" transform="translate(560.693359 0)"/>
       <use xlink:href="#DejaVuSans-20" transform="translate(592.480469 0)"/>
       <use xlink:href="#DejaVuSans-45" transform="translate(624.267578 0)"/>
       <use xlink:href="#DejaVuSans-4e" transform="translate(687.451172 0)"/>
      </g>
     </g>
    </g>
    <g id="ytick_7">
     <g id="line2d_21">
      <g>
       <use xlink:href="#m3579a98f07" x="72" y="351.571765" style="stroke: #000000; stroke-width: 0.8"/>
      </g>
     </g>
     <g id="text_21">
      <!-- MultiNERD  PT -->
      <g transform="translate(-9.5625 355.370983) scale(0.1 -0.1)">
       <defs>
        <path id="DejaVuSans-54" d="M -19 4666 
L 3928 4666 
L 3928 4134 
L 2272 4134 
L 2272 0 
L 1638 0 
L 1638 4134 
L -19 4134 
L -19 4666 
z
" transform="scale(0.015625)"/>
       </defs>
       <use xlink:href="#DejaVuSans-4d"/>
       <use xlink:href="#DejaVuSans-75" transform="translate(86.279297 0)"/>
       <use xlink:href="#DejaVuSans-6c" transform="translate(149.658203 0)"/>
       <use xlink:href="#DejaVuSans-74" transform="translate(177.441406 0)"/>
       <use xlink:href="#DejaVuSans-69" transform="translate(216.650391 0)"/>
       <use xlink:href="#DejaVuSans-4e" transform="translate(244.433594 0)"/>
       <use xlink:href="#DejaVuSans-45" transform="translate(319.238281 0)"/>
       <use xlink:href="#DejaVuSans-52" transform="translate(382.421875 0)"/>
       <use xlink:href="#DejaVuSans-44" transform="translate(451.904297 0)"/>
       <use xlink:href="#DejaVuSans-20" transform="translate(528.90625 0)"/>
       <use xlink:href="#DejaVuSans-b7" transform="translate(560.693359 0)"/>
       <use xlink:href="#DejaVuSans-20" transform="translate(592.480469 0)"/>
       <use xlink:href="#DejaVuSans-50" transform="translate(624.267578 0)"/>
       <use xlink:href="#DejaVuSans-54" transform="translate(684.570312 0)"/>
      </g>
     </g>
    </g>
   </g>
   <g id="patch_3">
    <path d="M 72 384.48 
L 72 51.84 
" style="fill: none; stroke: #000000; stroke-width: 0.8; stroke-linejoin: miter; stroke-linecap: square"/>
   </g>
   <g id="patch_4">
    <path d="M 518.4 384.48 
L 518.4 51.84 
" style="fill: none; stroke: #000000; stroke-width: 0.8; stroke-linejoin: miter; stroke-linecap: square"/>
   </g>
   <g id="patch_5">
    <path d="M 72 384.48 
L 518.4 384.48 
" style="fill: none; stroke: #000000; stroke-width: 0.8; stroke-linejoin: miter; stroke-linecap: square"/>
   </g>
   <g id="patch_6">
    <path d="M 72 51.84 
L 518.4 51.84 
" style="fill: none; stroke: #000000; stroke-width: 0.8; stroke-linejoin: miter; stroke-linecap: square"/>
   </g>
   <g id="PathCollection_1">
    <defs>
     <path id="mf6004849e3" d="M 0 2.236068 
C 0.593012 2.236068 1.161816 2.000462 1.581139 1.581139 
C 2.000462 1.161816 2.236068 0.593012 2.236068 0 
C 2.236068 -0.593012 2.000462 -1.161816 1.581139 -1.581139 
C 1.161816 -2.000462 0.593012 -2.236068 0 -2.236068 
C -0.593012 -2.236068 -1.161816 -2.000462 -1.581139 -1.581139 
C -2.000462 -1.161816 -2.236068 -0.593012 -2.236068 0 
C -2.236068 0.593012 -2.000462 1.161816 -1.581139 1.581139 
C -1.161816 2.000462 -0.593012 2.236068 0 2.236068 
z
" style="stroke: #000000"/>
    </defs>
    <g clip-path="url(#pdcb11c19d9)">
     <use xlink:href="#mf6004849e3" x="124.517647" y="84.748235" style="fill: #ffffff; stroke: #000000"/>
    </g>
   </g>
   <g id="PathCollection_2">
    <g clip-path="url(#pdcb11c19d9)">
     <use xlink:href="#mf6004849e3" x="124.517647" y="129.218824" style="fill: #ffffff; stroke: #000000"/>
    </g>
   </g>
   <g id="PathCollection_3">
    <g clip-path="url(#pdcb11c19d9)">
     <use xlink:href="#mf6004849e3" x="124.517647" y="173.689412" style="fill: #ffffff; stroke: #000000"/>
    </g>
   </g>
   <g id="PathCollection_4">
    <g clip-path="url(#pdcb11c19d9)">
     <use xlink:href="#mf6004849e3" x="124.517647" y="218.16" style="fill: #ffffff; stroke: #000000"/>
    </g>
   </g>
   <g id="PathCollection_5">
    <g clip-path="url(#pdcb11c19d9)">
     <use xlink:href="#mf6004849e3" x="124.517647" y="262.630588" style="fill: #ffffff; stroke: #000000"/>
    </g>
   </g>
   <g id="PathCollection_6">
    <g clip-path="url(#pdcb11c19d9)">
     <use xlink:href="#mf6004849e3" x="91.694118" y="307.101176" style="fill: #ffffff; stroke: #000000"/>
    </g>
   </g>
   <g id="PathCollection_7">
    <g clip-path="url(#pdcb11c19d9)">
     <use xlink:href="#mf6004849e3" x="91.694118" y="351.571765" style="fill: #ffffff; stroke: #000000"/>
    </g>
   </g>
  </g>
 </g>
 <defs>
  <clipPath id="pdcb11c19d9">
   <rect x="72" y="51.84" width="446.4" height="332.64"/>
  </clipPath>
 </defs>
</svg>
